<svg width="28" height="20" viewBox="0 0 28 20" fill="none" xmlns="http://www.w3.org/2000/svg">
<path fill-rule="evenodd" clip-rule="evenodd" d="M17.3641 0.385979C17.8788 -0.12866 18.7132 -0.128659 19.2278 0.385979L27.6143 8.77249C28.129 9.28713 28.129 10.1215 27.6143 10.6362C27.5958 10.6546 27.5769 10.6725 27.5577 10.6896L19.2243 19.023C18.7096 19.5376 17.8752 19.5376 17.3606 19.023C16.846 18.5084 16.846 17.674 17.3606 17.1593L23.369 11.1509H1.31781C0.590004 11.1509 0 10.5609 0 9.83309C0 9.10528 0.590005 8.51527 1.31781 8.51527H23.6298L17.3641 2.24965C16.8495 1.73501 16.8495 0.900617 17.3641 0.385979Z" fill="#A52B41"/>
</svg>
