<svg width="15" height="16" viewBox="0 0 15 16" fill="none" xmlns="http://www.w3.org/2000/svg">
<path d="M4.83551 10.4331H13.1979C13.3394 10.4354 13.477 10.3866 13.5864 10.2952C13.6958 10.2039 13.7698 10.076 13.7953 9.9343L14.9899 3.24338C15.0061 3.15596 15.0032 3.06599 14.9816 2.97981C14.9599 2.89363 14.9199 2.81335 14.8645 2.74461C14.807 2.67434 14.7348 2.61816 14.6531 2.58025C14.5714 2.54234 14.4823 2.52367 14.3926 2.52563H5.43283C5.27441 2.52563 5.12248 2.58972 5.01046 2.70379C4.89844 2.81786 4.83551 2.97257 4.83551 3.1339C4.83551 3.29522 4.89844 3.44993 5.01046 3.564C5.12248 3.67808 5.27441 3.74216 5.43283 3.74216H13.6758L12.6962 9.21655H5.31934L3.64088 1.18136C3.61174 1.04303 3.53615 0.919361 3.42713 0.831654C3.3181 0.743948 3.18247 0.697687 3.04356 0.700834H1.25161C1.0932 0.700834 0.941265 0.764919 0.829247 0.878991C0.717228 0.993063 0.654297 1.14778 0.654297 1.3091C0.654297 1.47042 0.717228 1.62514 0.829247 1.73921C0.941265 1.85328 1.0932 1.91737 1.25161 1.91737H2.55974L4.2382 9.95255C4.26734 10.0909 4.34293 10.2146 4.45195 10.3023C4.56097 10.39 4.69661 10.4362 4.83551 10.4331Z" fill="black"/>
<path d="M5.73217 11.0415C5.31869 11.0415 4.9145 11.1664 4.57071 11.4003C4.22692 11.6342 3.95897 11.9667 3.80074 12.3557C3.64251 12.7447 3.60111 13.1728 3.68177 13.5858C3.76244 13.9987 3.96154 14.3781 4.25391 14.6758C4.54628 14.9735 4.91879 15.1763 5.32432 15.2584C5.72985 15.3406 6.15019 15.2984 6.53219 15.1373C6.91419 14.9762 7.24069 14.7033 7.4704 14.3532C7.70012 14.0031 7.82273 13.5915 7.82273 13.1704C7.82273 12.6058 7.60247 12.0643 7.21042 11.6651C6.81836 11.2658 6.28662 11.0415 5.73217 11.0415ZM5.73217 14.0828C5.55496 14.0828 5.38174 14.0293 5.2344 13.9291C5.08706 13.8288 4.97222 13.6863 4.90441 13.5196C4.8366 13.3529 4.81885 13.1694 4.85343 12.9924C4.888 12.8154 4.97333 12.6529 5.09863 12.5253C5.22393 12.3977 5.38357 12.3108 5.55737 12.2756C5.73117 12.2404 5.91132 12.2584 6.07503 12.3275C6.23875 12.3965 6.37868 12.5135 6.47713 12.6635C6.57557 12.8136 6.62812 12.99 6.62812 13.1704C6.62812 13.4124 6.53373 13.6445 6.3657 13.8156C6.19768 13.9867 5.96979 14.0828 5.73217 14.0828Z" fill="black"/>
<path d="M11.705 11.0415C11.2915 11.0415 10.8872 11.1664 10.5434 11.4003C10.1996 11.6342 9.93164 11.9667 9.7734 12.3557C9.61516 12.7447 9.57376 13.1728 9.65443 13.5858C9.7351 13.9987 9.93422 14.3781 10.2266 14.6758C10.519 14.9735 10.8915 15.1763 11.2971 15.2585C11.7026 15.3406 12.123 15.2984 12.505 15.1373C12.8871 14.9762 13.2136 14.7033 13.4433 14.3532C13.673 14.0031 13.7957 13.5915 13.7957 13.1704C13.7957 12.6058 13.5754 12.0643 13.1833 11.6651C12.7912 11.2658 12.2594 11.0415 11.705 11.0415V11.0415ZM11.705 14.0828C11.5277 14.0828 11.3545 14.0293 11.2072 13.9291C11.0598 13.8288 10.945 13.6863 10.8771 13.5196C10.8093 13.3529 10.7916 13.1694 10.8262 12.9924C10.8607 12.8154 10.9461 12.6529 11.0714 12.5253C11.1967 12.3977 11.3563 12.3108 11.5302 12.2756C11.704 12.2404 11.8841 12.2584 12.0478 12.3275C12.2116 12.3965 12.3515 12.5135 12.45 12.6635C12.5484 12.8136 12.601 12.99 12.601 13.1704C12.601 13.4124 12.5066 13.6445 12.3385 13.8156C12.1705 13.9867 11.9426 14.0828 11.705 14.0828Z" fill="black"/>
</svg>
