<svg width="11" height="7" viewBox="0 0 11 7" fill="none" xmlns="http://www.w3.org/2000/svg">
<path fill-rule="evenodd" clip-rule="evenodd" d="M1.28995 0.942286C1.7781 0.454131 2.56956 0.454131 3.05771 0.942286L5.67383 3.5584L8.28995 0.942286C8.7781 0.454131 9.56956 0.454131 10.0577 0.942286C10.5459 1.43044 10.5459 2.2219 10.0577 2.71005L6.72323 6.04453C6.72307 6.0447 6.72291 6.04486 6.72274 6.04502C6.7227 6.04507 6.72265 6.04512 6.7226 6.04516C6.14378 6.62414 5.20529 6.62451 4.62597 6.04608L4.62529 6.0454C4.62427 6.04439 4.62328 6.04339 4.62231 6.04242L1.28995 2.71005C0.801791 2.2219 0.801791 1.43044 1.28995 0.942286Z" fill="black"/>
</svg>
