<svg width="10" height="19" viewBox="0 0 10 19" fill="none" xmlns="http://www.w3.org/2000/svg">
<path fill-rule="evenodd" clip-rule="evenodd" d="M9.62343 0.0537371L7.22488 0.0498047C4.5302 0.0498047 2.78878 1.87545 2.78878 4.70112V6.84569H0.377148C0.168754 6.84569 0 7.01832 0 7.23127V10.3385C0 10.5514 0.168947 10.7239 0.377148 10.7239H2.78878V18.5644C2.78878 18.7774 2.95753 18.9498 3.16593 18.9498H6.31242C6.52081 18.9498 6.68956 18.7772 6.68956 18.5644V10.7239H9.50932C9.71772 10.7239 9.88647 10.5514 9.88647 10.3385L9.88763 7.23127C9.88763 7.12902 9.84779 7.0311 9.77717 6.95875C9.70656 6.88639 9.61034 6.84569 9.51029 6.84569H6.68956V5.02771C6.68956 4.15392 6.89334 3.71034 8.00727 3.71034L9.62304 3.70975C9.83125 3.70975 10 3.53711 10 3.32437V0.439118C10 0.226569 9.83144 0.0541304 9.62343 0.0537371Z" fill="white"/>
</svg>
