<svg width="45" height="45" viewBox="0 0 45 45" fill="none" xmlns="http://www.w3.org/2000/svg">
<path fill-rule="evenodd" clip-rule="evenodd" d="M22.5 1.5C10.902 1.5 1.5 10.902 1.5 22.5C1.5 34.098 10.902 43.5 22.5 43.5C34.098 43.5 43.5 34.098 43.5 22.5C43.5 10.902 34.098 1.5 22.5 1.5ZM0 22.5C0 10.0736 10.0736 0 22.5 0C34.9264 0 45 10.0736 45 22.5C45 34.9264 34.9264 45 22.5 45C10.0736 45 0 34.9264 0 22.5Z" fill="white"/>
<path fill-rule="evenodd" clip-rule="evenodd" d="M20.1161 18.1161C20.6043 17.628 21.3957 17.628 21.8839 18.1161L25.218 21.4502C25.2182 21.4504 25.2178 21.4501 25.218 21.4502C25.2181 21.4504 25.2189 21.4511 25.219 21.4512C25.7983 22.0303 25.7981 22.969 25.2197 23.5481L21.8839 26.8839C21.3957 27.372 20.6043 27.372 20.1161 26.8839C19.628 26.3957 19.628 25.6043 20.1161 25.1161L22.7322 22.5L20.1161 19.8839C19.628 19.3957 19.628 18.6043 20.1161 18.1161Z" fill="white"/>
</svg>
