<svg width="12" height="14" viewBox="0 0 12 14" fill="none" xmlns="http://www.w3.org/2000/svg">
<path fill-rule="evenodd" clip-rule="evenodd" d="M2.5 3.62182C2.5 1.75962 4.00962 0.25 5.87182 0.25C7.73402 0.25 9.24364 1.75962 9.24364 3.62182C9.24364 5.48402 7.73402 6.99364 5.87182 6.99364C4.00962 6.99364 2.5 5.48402 2.5 3.62182ZM5.87182 1.75C4.83804 1.75 4 2.58804 4 3.62182C4 4.6556 4.83804 5.49364 5.87182 5.49364C6.9056 5.49364 7.74364 4.6556 7.74364 3.62182C7.74364 2.58804 6.9056 1.75 5.87182 1.75Z" fill="#171717"/>
<path fill-rule="evenodd" clip-rule="evenodd" d="M3.85042 8.09289C4.45846 7.87792 5.15481 7.75 5.8546 7.75C8.90057 7.75 11.5 10.0526 11.5 13C11.5 13.4142 11.1642 13.75 10.75 13.75C10.3358 13.75 10 13.4142 10 13C10 10.9974 8.19357 9.25 5.8546 9.25C5.33075 9.25 4.80345 9.34701 4.35094 9.50692C2.81914 10.0512 1.75 11.4419 1.75 13C1.75 13.4142 1.41421 13.75 1 13.75C0.585786 13.75 0.25 13.4142 0.25 13C0.25 10.7333 1.79152 8.82413 3.84941 8.09325L3.85042 8.09289Z" fill="#171717"/>
</svg>
