<svg width="50" height="50" viewBox="0 0 50 50" fill="none" xmlns="http://www.w3.org/2000/svg">
<path fill-rule="evenodd" clip-rule="evenodd" d="M25 2C12.2975 2 2 12.2975 2 25C2 37.7025 12.2975 48 25 48C37.7025 48 48 37.7025 48 25C48 12.2975 37.7025 2 25 2ZM0 25C0 11.1929 11.1929 0 25 0C38.8071 0 50 11.1929 50 25C50 38.8071 38.8071 50 25 50C11.1929 50 0 38.8071 0 25Z" fill="#DDDDDD"/>
<path fill-rule="evenodd" clip-rule="evenodd" d="M20.0747 25.5L26.7483 19.3517C27.0839 19.0425 27.0839 18.5412 26.7483 18.2319C26.4127 17.9227 25.8686 17.9227 25.533 18.2319L18.2517 24.9401C17.9161 25.2493 17.9161 25.7507 18.2517 26.0599L25.533 32.7681C25.8686 33.0773 26.4127 33.0773 26.7483 32.7681C27.0839 32.4588 27.0839 31.9575 26.7483 31.6483L20.0747 25.5Z" fill="#DDDDDD"/>
<path fill-rule="evenodd" clip-rule="evenodd" d="M26.7483 18.2319C26.4127 17.9227 25.8686 17.9227 25.533 18.2319L18.2517 24.9401C17.9161 25.2493 17.9161 25.7506 18.2517 26.0599C18.2517 26.0599 18.2517 26.0599 18.2517 26.0599L25.533 32.768C25.8686 33.0773 26.4127 33.0773 26.7483 32.7681C27.0839 32.4589 27.0839 31.9575 26.7483 31.6483L20.0746 25.5L26.7483 19.3517C27.0839 19.0426 27.0839 18.5411 26.7483 18.2319ZM27.0871 17.8643C26.5601 17.3786 25.7212 17.3785 25.1942 17.8642C25.1942 17.8642 25.1942 17.8642 25.1942 17.8642L17.9129 24.5723C17.3624 25.0797 17.3623 25.9203 17.9129 26.4276L25.1942 33.1357C25.7212 33.6215 26.5601 33.6215 27.0871 33.1357C27.6377 32.6285 27.6377 31.7877 27.0871 31.2805L20.8126 25.5L27.0871 19.7195C27.6377 19.2123 27.6377 18.3715 27.0871 17.8643Z" fill="#DDDDDD" fill-opacity="0.5"/>
</svg>
