<svg width="11" height="17" viewBox="0 0 11 17" fill="none" xmlns="http://www.w3.org/2000/svg">
<path fill-rule="evenodd" clip-rule="evenodd" d="M0.908661 7.5763L0.912758 7.57218L8.19419 0.864205C8.72123 0.378593 9.56008 0.378599 10.0871 0.864217C10.0871 0.864218 10.0871 0.864215 10.0871 0.864217C10.6377 1.37148 10.6377 2.21219 10.0871 2.71946L9.91775 2.53567L10.0295 2.75922L10.0611 2.74342L3.81262 8.5L3.61305 8.31613L3.44365 8.5L3.61305 8.68387L3.81262 8.5L10.0153 14.2144H9.9177L9.91769 14.4644L9.74832 14.6483L3.07469 8.5L9.7483 2.35174L9.91775 2.53567L9.80591 2.31199L9.77429 2.3278L9.75074 2.3495C10.0839 2.04009 10.0831 1.54041 9.74831 1.23193C9.41307 0.923029 8.86976 0.922693 8.53407 1.23092M9.75084 14.6506L9.82009 14.7144H9.91769V14.4644L10.0871 14.2805C10.6377 14.7877 10.6377 15.6285 10.0871 16.1357C9.58522 16.5983 8.80049 16.6203 8.27162 16.2019H8.26597L8.19418 16.1358M9.75084 14.6506C10.0839 14.96 10.0831 15.4596 9.74832 15.768C9.41273 16.0773 8.86862 16.0773 8.53302 15.7681L8.46122 15.7019" fill="#DDDDDD" fill-opacity="0.5"/>
</svg>
