<svg width="14" height="13" viewBox="0 0 14 13" fill="none" xmlns="http://www.w3.org/2000/svg">
<path d="M6.08153 0.915599C6.38152 -0.00437677 7.683 -0.00437772 7.98299 0.915598L8.83513 3.52887C8.96932 3.94038 9.35303 4.21885 9.78586 4.21885H12.5358C13.5054 4.21885 13.9076 5.46029 13.1222 6.02886L10.9036 7.63502C10.5519 7.88966 10.4047 8.34221 10.5393 8.75505L11.3882 11.3583C11.6884 12.279 10.6355 13.0462 9.85106 12.4784L7.61867 10.8622C7.26876 10.6089 6.79575 10.6089 6.44585 10.8622L4.21346 12.4784C3.42904 13.0462 2.3761 12.279 2.67632 11.3583L3.5252 8.75505C3.65983 8.34221 3.51262 7.88966 3.16088 7.63502L0.942273 6.02886C0.15689 5.46029 0.559092 4.21885 1.52868 4.21885H4.27865C4.71149 4.21885 5.09519 3.94038 5.22938 3.52887L6.08153 0.915599Z" fill="#FFB000"/>
</svg>
