<svg width="14" height="13" viewBox="0 0 14 13" fill="none" xmlns="http://www.w3.org/2000/svg">
<path d="M6.27489 0.915599C6.57487 -0.00437677 7.87636 -0.00437772 8.17635 0.915598L9.02849 3.52887C9.16268 3.94038 9.54638 4.21885 9.97922 4.21885H12.7292C13.6988 4.21885 14.101 5.46029 13.3156 6.02886L11.097 7.63502C10.7452 7.88966 10.598 8.34221 10.7327 8.75505L11.5816 11.3583C11.8818 12.279 10.8288 13.0462 10.0444 12.4784L7.81203 10.8622C7.46212 10.6089 6.98911 10.6089 6.63921 10.8622L4.40682 12.4784C3.6224 13.0462 2.56946 12.279 2.86968 11.3583L3.71856 8.75505C3.85319 8.34221 3.70598 7.88966 3.35424 7.63502L1.13563 6.02886C0.350249 5.46029 0.752451 4.21885 1.72204 4.21885H4.47201C4.90485 4.21885 5.28855 3.94038 5.42274 3.52887L6.27489 0.915599Z" fill="#C4C4C4"/>
</svg>
