<svg width="20" height="20" viewBox="0 0 20 20" fill="none" xmlns="http://www.w3.org/2000/svg">
<path fill-rule="evenodd" clip-rule="evenodd" d="M18.979 4.36247C18.9532 4.33177 18.9106 4.32134 18.8743 4.33809C18.3361 4.57908 17.77 4.75234 17.1869 4.85469C17.8059 4.38462 18.2672 3.73366 18.5037 2.98724C18.5151 2.95151 18.5033 2.91243 18.4744 2.88917C18.4453 2.86591 18.4049 2.86293 18.373 2.8821C17.6758 3.29951 16.9206 3.59372 16.1276 3.75692C15.4248 3.02074 14.4435 2.59961 13.4278 2.59961C11.3623 2.59961 9.68211 4.29566 9.68211 6.38047C9.68211 6.63262 9.70626 6.88236 9.75419 7.12484C6.89336 6.94656 4.21836 5.56017 2.3995 3.30825C2.38088 3.28518 2.35268 3.27234 2.32318 3.27531C2.29387 3.27755 2.26769 3.2943 2.25294 3.31979C1.9211 3.89445 1.74578 4.55191 1.74578 5.22073C1.74578 6.37991 2.2675 7.46372 3.15591 8.17887C2.69853 8.12342 2.25183 7.97808 1.84902 7.75235C1.82192 7.7369 1.78818 7.73709 1.76108 7.7529C1.73398 7.76854 1.71683 7.79757 1.7161 7.8292L1.71573 7.87759C1.71573 9.54238 2.8025 11.0041 4.3487 11.4895C3.94145 11.5557 3.51891 11.5513 3.10356 11.4712C3.07295 11.4655 3.04088 11.4761 3.01986 11.4999C2.99903 11.5237 2.99202 11.557 3.00161 11.5872C3.46526 13.048 4.75354 14.0724 6.25309 14.2001C5.00224 15.1252 3.5237 15.6126 1.96147 15.6126C1.67369 15.6126 1.38389 15.5952 1.09998 15.5616C1.05942 15.5569 1.01923 15.5813 1.00522 15.6206C0.991209 15.6602 1.00614 15.7045 1.04117 15.727C2.73171 16.8214 4.68643 17.3996 6.69425 17.3996C13.2619 17.3996 17.1865 12.0144 17.1865 6.8083C17.1865 6.66333 17.1837 6.51911 17.178 6.37526C17.8865 5.85215 18.4947 5.2118 18.9851 4.47059C19.007 4.43747 19.0046 4.39336 18.979 4.36247Z" fill="white"/>
</svg>
