<svg width="18" height="16" viewBox="0 0 18 16" fill="none" xmlns="http://www.w3.org/2000/svg">
<path fill-rule="evenodd" clip-rule="evenodd" d="M9 0.799805C6.102 0.799805 2.3406 1.52915 2.3406 1.52915L2.33113 1.54002C1.01123 1.75205 0 2.89128 0 4.27677V11.7215C0.00266071 13.0897 0.993669 14.2521 2.33789 14.465L2.3406 14.4691C2.3406 14.4691 6.102 15.1998 9 15.1998C11.898 15.1998 15.6594 14.4691 15.6594 14.4691C17.0065 14.2553 17.9986 13.0912 18 11.7228V4.27677C17.998 2.90936 17.0068 1.74622 15.6621 1.53323C15.6594 1.52915 11.898 0.799805 9 0.799805ZM7.2 4.8498L12.6 7.9998L7.2 11.1498V4.8498Z" fill="white"/>
</svg>
