<svg width="177" height="69" viewBox="0 0 177 69" fill="none" xmlns="http://www.w3.org/2000/svg">
<path d="M2.31875 19.6435C2.31875 9.56719 10.6141 1.36472 20.7887 1.36472C27.8265 1.36472 33.9569 5.28211 37.0722 11.0238C26.9405 15.8817 19.9027 26.0711 19.6883 37.8869C10.0211 37.3283 2.31875 29.3663 2.31875 19.6435ZM39.2585 19.6435C39.2585 29.3309 31.5991 37.2717 21.9604 37.8799C22.1676 26.9692 28.6696 17.5505 38.0153 13.0603C38.8156 15.1109 39.2585 17.3313 39.2585 19.6435ZM75.4124 51.8382C70.5895 60.6205 61.1938 66.5532 50.4048 66.5532C35.0073 66.5532 22.4249 54.3767 21.9676 39.2517C32.3565 38.6435 40.6304 30.0804 40.6304 19.6435C40.6304 17.1191 40.1445 14.715 39.2657 12.4946C42.6882 11.0451 46.4536 10.246 50.4048 10.246C60.9294 10.246 70.1465 15.9312 75.0694 24.3741H77.7059C72.583 14.6655 62.2227 8.01155 50.4048 8.01155C46.1178 8.01155 42.0308 8.88837 38.3226 10.4652C34.9858 4.24266 28.3767 0 20.7887 0C9.82818 0 0.932617 8.81059 0.932617 19.6435C0.932617 30.1229 9.25658 38.7072 19.7098 39.2658C20.1742 55.6283 33.7712 68.7947 50.4119 68.7947C62.4585 68.7947 72.9688 61.8579 77.9989 51.8453H75.4124V51.8382Z" fill="white"/>
<path d="M58.672 40.5524C58.672 46.478 55.471 48.6276 49.705 48.6276C44.3319 48.6276 40.8809 46.4214 40.8809 41.5707V41.1605H46.7255C46.8398 43.3031 47.4543 44.5547 49.7693 44.5547C51.5841 44.5547 52.8345 43.6142 52.8345 40.5241V28.1992H58.6863V40.5524H58.672Z" fill="white"/>
<path d="M88.9308 39.4781V38.2477C88.9308 29.9321 82.5217 27.3936 76.8057 27.3936C66.7669 27.3936 63.9375 32.6403 63.9375 38.1275C63.9375 43.6146 66.7669 48.8614 76.8057 48.8614C80.8569 48.8614 87.7876 47.7017 88.3806 42.7378H82.0073C81.3714 44.647 78.7348 45.2834 76.97 45.2834C73.5761 45.2834 70.1465 43.65 70.1465 39.4781H88.9308ZM70.1465 35.9001C70.5038 32.4777 73.4618 30.9715 76.4127 30.9715C79.6708 30.9715 82.3502 32.2868 82.7146 35.9001H70.1465Z" fill="white"/>
<path d="M115.203 39.0038C115.203 45.8982 111.331 48.6205 104.343 48.6205C97.3192 48.6205 93.4395 46.1174 93.4395 39.7675V28.1992H99.2984V39.3645C99.2984 42.9495 101.106 44.5547 104.343 44.5547C108.18 44.5547 109.351 42.1505 109.351 38.6503V28.1992H115.196V39.0038H115.203Z" fill="white"/>
<path d="M120.033 28.1992H125.885V44.0173H137.253V48.1044H120.033V28.1992Z" fill="white"/>
<path d="M147.702 28.1941L141.843 28.2051L141.881 48.1102L147.74 48.0992L147.702 28.1941Z" fill="white"/>
<path d="M153.3 32.8737C153.3 31.1271 153.215 29.423 153.129 28.1431H158.995C159.074 29.2533 159.159 30.3281 159.159 31.4453H159.238C161.289 28.6239 164.061 27.3936 167.762 27.3936C171.377 27.3936 177 29.3381 177 35.8152V48.1048H170.899V37.5264C170.899 32.5979 168.605 31.4453 165.668 31.4453C162.496 31.4453 159.402 33.6303 159.402 38.481V48.1048H153.3V32.8737Z" fill="white"/>
<path d="M174.05 53.9951C173.621 54.4688 173.436 55.3881 173.371 55.8972C174.05 55.8901 174.715 55.5154 175.243 55.0204C175.508 54.7658 175.701 54.4405 175.701 54.087C175.701 53.6627 175.401 53.4718 175.065 53.4718C174.865 53.4647 174.457 53.5284 174.05 53.9951ZM174.465 57.665C174.865 57.665 175.165 57.573 175.393 57.4811C175.515 57.4246 175.636 57.5589 175.601 57.6933C175.536 57.9195 175.372 58.1317 175.136 58.1882C174.9 58.2377 174.607 58.2802 174.243 58.2802C172.743 58.2307 172.371 57.3751 172.35 56.2013C172.35 55.1618 172.843 54.3416 173.143 53.9668C173.793 53.1748 174.65 52.9061 175.265 52.9061C176.151 52.9061 176.608 53.394 176.608 54.0304C176.608 54.3274 176.494 54.6951 176.308 54.978C176.051 55.3739 175.701 55.5931 175.401 55.7416C174.729 56.0598 174.093 56.081 173.336 56.1093C173.343 56.1093 173.021 57.6791 174.465 57.665ZM172.3 53.0051C172.507 53.0546 172.557 53.3021 172.478 53.5001C172.4 53.6839 172.164 53.7122 171.978 53.6415C171.864 53.6062 171.721 53.5779 171.542 53.5779C170.263 53.5779 169.506 54.8507 169.506 56.1447C169.506 56.5902 169.599 57.1346 170.099 57.4528C170.342 57.6084 170.621 57.665 170.899 57.665C171.142 57.665 171.342 57.6296 171.535 57.5589C171.678 57.5235 171.764 57.6862 171.714 57.8276C171.628 58.0539 171.414 58.2094 171.178 58.2377C171.028 58.2589 170.863 58.266 170.706 58.266C169.313 58.266 168.484 57.4741 168.484 56.2013C168.484 54.7375 169.506 52.9344 171.678 52.9344C171.935 52.9415 172.128 52.9698 172.3 53.0051ZM163.768 54.8224C163.833 54.4405 163.911 53.9597 163.911 53.6062V53.5496C163.904 53.3304 163.976 53.09 164.197 53.0688C164.311 53.0617 164.412 53.0405 164.519 53.0193C164.747 52.9698 164.955 53.1607 164.905 53.387C164.869 53.5708 164.747 54.1789 164.69 54.5042C164.862 54.2496 165.097 53.5991 165.369 53.3799C165.748 53.09 166.212 52.9132 166.691 52.9132C167.212 52.9132 167.913 53.1183 167.913 53.889C167.913 54.0587 167.884 54.2567 167.798 54.7022L167.562 56.0103C167.484 56.4134 167.355 57.17 167.327 57.6508C167.305 57.9195 167.069 58.1175 166.798 58.1175H166.712C166.484 58.1246 166.305 57.9195 166.362 57.7074C166.448 57.4175 166.548 56.9579 166.712 56.0386L166.827 55.4093C167.055 54.1436 167.119 53.6486 166.212 53.6486C165.769 53.6486 165.269 53.9385 164.99 54.2921C164.64 54.7446 164.54 55.3669 164.454 55.8831L164.283 56.9791C164.233 57.269 164.219 57.4811 164.204 57.665C164.183 57.9266 163.94 58.1034 163.676 58.1034H163.597C163.361 58.1104 163.161 57.9195 163.225 57.7003C163.333 57.3538 163.397 57.0144 163.461 56.576L163.768 54.8224ZM160.496 53.9951C160.067 54.4688 159.882 55.3881 159.817 55.8972C160.496 55.8901 161.161 55.5154 161.689 55.0204C161.954 54.7658 162.147 54.4405 162.147 54.087C162.147 53.6627 161.846 53.4718 161.511 53.4718C161.311 53.4647 160.903 53.5284 160.496 53.9951ZM160.91 57.665C161.311 57.665 161.611 57.573 161.839 57.4811C161.961 57.4246 162.082 57.5589 162.047 57.6933C161.982 57.9195 161.818 58.1317 161.582 58.1882C161.346 58.2377 161.053 58.2802 160.689 58.2802C159.189 58.2307 158.817 57.3751 158.796 56.2013C158.796 55.1618 159.289 54.3416 159.589 53.9668C160.239 53.1748 161.096 52.9061 161.711 52.9061C162.597 52.9061 163.054 53.394 163.054 54.0304C163.054 54.3274 162.94 54.6951 162.754 54.978C162.497 55.3739 162.147 55.5931 161.846 55.7416C161.175 56.0598 160.539 56.081 159.782 56.1093C159.789 56.1093 159.467 57.6791 160.91 57.665ZM158.66 51.7252C158.66 52.0222 158.431 52.5031 158.01 52.5031C157.781 52.5031 157.545 52.3546 157.545 52.0152C157.545 51.7323 157.752 51.2656 158.21 51.2656C158.453 51.2656 158.66 51.4141 158.66 51.7252ZM157.895 55.8618C157.724 56.7952 157.652 57.3538 157.624 57.6791C157.602 57.9407 157.359 58.1175 157.095 58.1175H157.016C156.781 58.1246 156.616 57.8842 156.688 57.6508C156.738 57.4458 156.802 57.1629 156.874 56.7528L157.045 55.8336C157.274 54.589 157.359 53.9739 157.345 53.6344C157.338 53.4223 157.402 53.1607 157.631 53.1395C157.767 53.1183 157.881 53.1041 157.981 53.0829C158.21 53.0263 158.388 53.2526 158.338 53.4789C158.303 53.6627 158.245 53.9173 158.167 54.3416L157.895 55.8618ZM154.201 54.6739C154.294 54.1648 154.323 53.8466 154.316 53.6344C154.294 53.4082 154.401 53.1678 154.63 53.1395C154.723 53.1324 154.809 53.1183 154.887 53.1112C155.123 53.0617 155.352 53.2314 155.302 53.4647C155.266 53.6415 155.102 54.2991 155.03 54.688C155.244 54.3416 155.587 53.5567 156.08 53.2314C156.28 53.097 156.452 53.0263 156.588 52.9768C156.816 52.9132 156.974 53.1536 156.902 53.3657C156.809 53.6344 156.523 53.79 156.238 53.8537C155.795 53.9526 155.252 54.3486 154.987 55.2891C154.844 55.7841 154.63 57.0215 154.58 57.6367C154.551 57.9054 154.323 58.1246 154.051 58.1175H154.001C153.765 58.1175 153.558 57.9125 153.623 57.6791C153.673 57.5165 153.715 57.3538 153.737 57.2124L154.201 54.6739ZM151.815 52.5314C152.022 52.5314 152.308 52.4536 152.565 52.3051C153.001 51.9869 153.072 51.9091 153.151 51.6758C153.215 51.4424 153.072 51.2656 152.865 51.2656C152.551 51.2656 152.458 51.4495 152.394 51.7182C152.344 51.895 152.194 52.0717 151.886 52.2909C151.736 52.3758 151.679 52.5314 151.815 52.5314ZM150.936 53.9951C150.514 54.4688 150.322 55.3881 150.257 55.8972C150.936 55.8901 151.6 55.5154 152.129 55.0204C152.394 54.7658 152.579 54.4405 152.579 54.087C152.579 53.6627 152.279 53.4718 151.943 53.4718C151.743 53.4647 151.343 53.5284 150.936 53.9951ZM151.35 57.665C151.743 57.665 152.051 57.573 152.279 57.4811C152.401 57.4246 152.522 57.5589 152.486 57.6933C152.422 57.9195 152.258 58.1317 152.022 58.1882C151.786 58.2377 151.493 58.2802 151.136 58.2802C149.636 58.2307 149.264 57.3751 149.243 56.2013C149.243 55.1618 149.736 54.3416 150.036 53.9668C150.686 53.1748 151.536 52.9061 152.151 52.9061C153.037 52.9061 153.494 53.394 153.494 54.0304C153.494 54.3274 153.38 54.6951 153.194 54.978C152.937 55.3739 152.587 55.5931 152.286 55.7487C151.615 56.0669 150.979 56.0881 150.221 56.1164C150.221 56.1164 149.9 57.6791 151.35 57.665ZM145.477 55.4376C145.306 55.9891 145.127 56.972 145.056 57.3751C145.256 57.4811 145.491 57.6084 145.913 57.6084C146.62 57.6084 146.971 57.2619 147.142 57.0569C147.699 56.4134 147.864 55.3032 147.864 54.7517C147.864 54.2072 147.628 53.7334 147.042 53.7334C146.42 53.7334 145.806 54.3698 145.477 55.4376ZM148.821 54.483C148.821 55.4659 148.385 56.7104 147.678 57.4104C147.178 57.9054 146.506 58.2236 145.799 58.2236C145.599 58.2236 145.306 58.1953 144.913 58.1104L144.698 59.2984C144.641 59.6237 144.613 59.857 144.598 60.0409C144.57 60.3096 144.37 60.5571 144.098 60.5358H144.012C143.777 60.5358 143.562 60.3449 143.627 60.1257C143.748 59.7085 143.855 59.1499 143.955 58.6266L144.548 55.5649C144.627 55.1618 144.663 54.9285 144.734 54.4688C144.813 54.0516 144.827 53.7688 144.813 53.5708C144.791 53.3728 144.863 53.1465 145.056 53.1324C145.199 53.1253 145.313 53.1041 145.406 53.0829C145.642 53.0475 145.863 53.2243 145.813 53.4506L145.542 54.787C145.756 54.4618 146.092 53.5991 146.585 53.2526C146.699 53.1677 147.028 52.9344 147.585 52.9344C148.335 52.9415 148.821 53.4718 148.821 54.483ZM142.462 54.0799C142.676 53.8183 142.819 53.6415 142.912 53.5072C143.112 53.2455 143.405 53.0405 143.734 53.0475H143.827H143.912C144.07 53.0475 144.12 53.2455 144.005 53.3587C143.948 53.4152 143.891 53.4718 143.827 53.5354C143.712 53.6486 143.191 54.2072 143.069 54.3416L141.998 55.5083L142.876 57.2478C142.984 57.4741 143.062 57.6296 143.134 57.764C143.219 57.9195 143.098 58.1175 142.905 58.1104H142.819H142.726C142.398 58.1317 142.112 57.9125 141.99 57.6225C141.962 57.5377 141.926 57.4528 141.876 57.3538L141.376 56.2154L140.419 57.3185C140.261 57.4953 140.147 57.6367 140.061 57.7428C139.861 57.9832 139.561 58.1387 139.247 58.1246H139.154C138.99 58.1246 138.868 57.9549 138.982 57.8418C139.09 57.7357 139.24 57.5872 139.468 57.368L141.076 55.6356L140.226 53.9385C140.147 53.7971 140.068 53.6415 139.961 53.4718C139.847 53.288 139.997 53.0617 140.226 53.0617H140.333H140.447C140.74 53.0617 141.004 53.2455 141.09 53.5284C141.147 53.6839 141.233 53.8819 141.362 54.1718L141.69 54.9426L142.462 54.0799ZM136.582 53.9951C136.153 54.4688 135.967 55.3881 135.903 55.8972C136.582 55.8901 137.246 55.5154 137.775 55.0204C138.039 54.7658 138.225 54.4405 138.225 54.087C138.225 53.6627 137.925 53.4718 137.589 53.4718C137.396 53.4647 136.989 53.5284 136.582 53.9951ZM137.003 57.665C137.403 57.665 137.703 57.573 137.932 57.4811C138.054 57.4246 138.175 57.5589 138.139 57.6933C138.075 57.9195 137.911 58.1317 137.675 58.1882C137.439 58.2377 137.146 58.2802 136.782 58.2802C135.281 58.2307 134.91 57.3751 134.888 56.2013C134.888 55.1618 135.381 54.3416 135.681 53.9668C136.332 53.1748 137.189 52.9061 137.803 52.9061C138.689 52.9061 139.147 53.394 139.147 54.0304C139.147 54.3274 139.032 54.6951 138.847 54.978C138.589 55.3739 138.239 55.5931 137.939 55.7416C137.268 56.0598 136.632 56.081 135.874 56.1093C135.874 56.1093 135.553 57.6791 137.003 57.665ZM134.109 52.8001C133.988 52.9344 133.817 53.0051 133.638 53.0051C133.524 53.0051 133.438 52.892 133.502 52.8001C133.845 52.3475 134.052 51.9444 134.138 51.5626C134.145 51.5273 134.195 51.499 134.231 51.506C134.281 51.506 134.324 51.5131 134.374 51.5131H134.452C134.517 51.5131 134.617 51.5131 134.717 51.506C134.888 51.4848 135.017 51.6687 134.931 51.803C134.695 52.1778 134.467 52.4324 134.109 52.8001ZM131.309 58.1882C130.408 58.1812 130.323 57.5518 130.351 57.071C130.373 56.7457 130.451 56.3497 130.451 56.2578C130.544 55.7416 130.48 56.1376 130.858 53.9809C131.044 52.9061 131.123 52.3546 131.116 52.0364C131.109 51.8242 131.194 51.5697 131.409 51.5414C131.523 51.5343 131.616 51.5131 131.723 51.4848C131.952 51.4283 132.166 51.6262 132.123 51.8596C132.045 52.2061 131.973 52.6233 131.809 53.4577L131.373 55.982C131.309 56.4629 131.166 57.0144 131.237 57.2266C131.237 57.2266 131.323 57.5518 131.616 57.573C131.852 57.573 131.937 57.5377 132.123 57.4811C132.266 57.4316 132.359 57.6013 132.302 57.7498C132.216 57.9761 132.009 58.1246 131.766 58.1529C131.616 58.1812 131.466 58.1882 131.309 58.1882ZM125.535 55.777C125.271 55.6214 124.771 55.3174 124.771 54.681C124.771 54.1506 125.085 53.6769 125.514 53.3516C125.993 52.998 126.657 52.9344 127.022 52.9344C127.265 52.9344 127.443 52.9556 127.629 52.998C127.865 53.0475 127.972 53.3092 127.872 53.5213C127.779 53.7193 127.529 53.7617 127.343 53.6698C127.2 53.6062 127.022 53.5567 126.793 53.5567C126.071 53.5567 125.678 54.0163 125.678 54.391C125.678 54.8012 126.028 54.9992 126.386 55.1972L126.864 55.4871C127.129 55.6497 127.536 55.8972 127.536 56.4912C127.536 56.9154 127.35 57.4528 126.807 57.8488C126.243 58.2519 125.614 58.2802 125.221 58.2802C124.95 58.2802 124.749 58.2589 124.549 58.2165C124.278 58.1599 124.142 57.87 124.228 57.6084C124.292 57.4033 124.528 57.3468 124.721 57.4387C124.9 57.5236 125.15 57.5872 125.535 57.5872C126.286 57.5872 126.679 57.1771 126.679 56.7952C126.679 56.47 126.414 56.2932 126.121 56.1235L125.535 55.777ZM119.948 54.8224C120.012 54.4405 120.091 53.9597 120.091 53.6062V53.5496C120.084 53.3304 120.155 53.09 120.377 53.0688C120.491 53.0617 120.591 53.0405 120.698 53.0193C120.927 52.9698 121.134 53.1607 121.084 53.387C121.048 53.5708 120.92 54.1789 120.863 54.5042C121.034 54.2496 121.27 53.5991 121.541 53.3799C121.92 53.09 122.384 52.9132 122.87 52.9132C123.392 52.9132 124.092 53.1183 124.092 53.889C124.092 54.0587 124.064 54.2567 123.978 54.7022L123.742 56.0103C123.671 56.4134 123.535 57.17 123.506 57.6508C123.485 57.9195 123.249 58.1175 122.977 58.1175H122.892C122.663 58.1246 122.484 57.9195 122.542 57.7074C122.627 57.4175 122.735 56.9579 122.892 56.0386L123.006 55.4093C123.235 54.1436 123.299 53.6486 122.392 53.6486C121.949 53.6486 121.448 53.9385 121.17 54.2921C120.82 54.7446 120.713 55.3669 120.627 55.8831L120.455 56.9791C120.405 57.269 120.391 57.4811 120.377 57.665C120.355 57.9266 120.112 58.1034 119.848 58.1034H119.777C119.541 58.1104 119.341 57.9195 119.405 57.7003C119.512 57.3538 119.576 57.0144 119.641 56.576L119.948 54.8224ZM117.733 53.7829C117.619 53.6769 117.39 53.5284 117.011 53.5284C115.497 53.5284 115.132 55.7204 115.132 56.4558C115.132 57.3468 115.604 57.672 116.147 57.672C117.819 57.672 118.047 55.1052 118.047 54.6598C118.047 54.4476 118.04 54.0658 117.733 53.7829ZM118.548 53.4082C118.991 53.8395 119.012 54.4193 119.012 54.7022C119.012 56.1659 118.105 58.266 116.061 58.266C115.568 58.266 115.089 58.1246 114.725 57.7993C114.518 57.6084 114.189 57.2407 114.189 56.3497C114.189 54.8436 115.154 52.9344 117.161 52.9344C117.754 52.9344 118.233 53.09 118.548 53.4082ZM111.453 53.9951C111.024 54.4688 110.838 55.3881 110.774 55.8972C111.453 55.8901 112.117 55.5154 112.646 55.0204C112.91 54.7658 113.103 54.4405 113.103 54.087C113.103 53.6627 112.803 53.4718 112.467 53.4718C112.267 53.4647 111.86 53.5284 111.453 53.9951ZM111.867 57.665C112.267 57.665 112.567 57.573 112.796 57.4811C112.917 57.4246 113.039 57.5589 113.003 57.6933C112.939 57.9195 112.774 58.1317 112.539 58.1882C112.303 58.2377 112.01 58.2802 111.645 58.2802C110.145 58.2307 109.773 57.3751 109.752 56.2013C109.752 55.1618 110.245 54.3416 110.545 53.9668C111.195 53.1748 112.053 52.9061 112.667 52.9061C113.553 52.9061 114.01 53.394 114.01 54.0304C114.01 54.3274 113.896 54.6951 113.71 54.978C113.453 55.3739 113.103 55.5931 112.803 55.7416C112.131 56.0598 111.495 56.081 110.738 56.1093C110.745 56.1093 110.424 57.6791 111.867 57.665ZM107.566 53.5354C105.901 53.5354 105.572 55.5649 105.572 56.3073C105.572 56.5336 105.601 56.8518 105.744 57.0781C105.894 57.3185 106.13 57.4528 106.422 57.4528C106.865 57.4528 107.251 57.1629 107.509 56.7882C107.866 56.2437 108.016 55.5154 108.38 53.7264C108.216 53.6486 107.959 53.5354 107.566 53.5354ZM108.552 57.3751C108.309 58.7256 108.123 59.7651 106.801 60.253C106.33 60.4298 105.751 60.5076 105.244 60.5076C104.958 60.5076 104.743 60.4863 104.558 60.451C104.336 60.4156 104.236 60.1611 104.336 59.9631C104.443 59.758 104.679 59.6661 104.893 59.7368C105.051 59.7863 105.251 59.8217 105.529 59.8217C106.065 59.8217 106.608 59.6732 106.98 59.2772C107.437 58.8529 107.623 57.8983 107.88 56.5477C107.623 56.9296 106.987 58.2519 106.065 58.2519C105.536 58.2519 105.122 57.9973 104.893 57.6367C104.665 57.2831 104.65 56.8589 104.65 56.6467C104.65 55.1406 105.708 52.9485 107.723 52.9485C108.223 52.9485 108.537 53.097 108.795 53.2031C108.873 53.1748 108.938 53.1536 108.995 53.1253C109.202 53.0475 109.381 53.2738 109.323 53.5001C109.238 53.79 109.152 54.1648 109.009 54.9567L108.552 57.3751ZM103.357 53.6769C103.179 53.6203 102.914 53.5284 102.557 53.5284C100.971 53.5284 100.542 55.5507 100.542 56.3356C100.542 56.9791 100.778 57.4599 101.392 57.4599C101.742 57.4599 102.157 57.3043 102.493 56.8235C102.764 56.4275 102.943 55.8901 103.114 54.978L103.357 53.6769ZM103.943 53.0829C104.172 53.0051 104.358 53.2526 104.3 53.4789C104.222 53.79 104.122 54.2638 103.957 55.1335L103.786 56.0598C103.629 56.9579 103.579 57.4528 103.579 57.7569C103.579 57.9832 103.364 58.1387 103.136 58.1529C102.9 58.1599 102.7 57.9761 102.721 57.7498C102.757 57.368 102.893 56.675 102.893 56.5619C102.457 57.1346 101.842 58.2589 100.971 58.2589C100.278 58.2589 99.5918 57.764 99.5918 56.6962C99.5918 56.2508 99.749 54.5042 101.164 53.4789C101.392 53.3092 101.928 52.9556 102.714 52.9556C103.136 52.9556 103.422 53.0546 103.722 53.1678L103.943 53.0829ZM98.7773 52.9415C98.8559 52.5314 98.9059 52.2768 98.9916 51.9798C99.0488 51.7677 98.8201 51.598 98.6058 51.6404C98.2914 51.7182 98.0699 51.9657 98.0413 52.2768C98.0199 52.496 97.9913 52.6798 97.9485 52.9415L97.8556 52.9344C97.6769 52.9132 97.5269 53.0617 97.4983 53.2455C97.4697 53.4011 97.5841 53.5567 97.7413 53.5567L97.827 53.5637L97.2125 56.6892C97.0982 57.2761 97.0768 57.5872 97.3054 57.8983C97.4483 58.0822 97.8127 58.266 98.3486 58.266C98.4272 58.266 98.4986 58.266 98.5772 58.2589C98.8202 58.2307 98.9916 58.0256 99.0488 57.7923C99.0845 57.6438 98.9702 57.4953 98.8202 57.5306C98.7416 57.5518 98.6558 57.5589 98.5629 57.5589C98.2414 57.5589 98.0128 57.4104 98.0128 57.0427C98.0128 56.774 98.0842 56.3497 98.1914 55.8618C98.3057 55.2749 98.5343 54.1506 98.6415 53.5708C98.7773 53.5708 99.1131 53.5708 99.306 53.5779C99.5132 53.5779 99.7133 53.4577 99.7561 53.2597C99.7919 53.09 99.6633 52.9203 99.4918 52.9344C99.3274 52.9344 99.0202 52.9344 98.7773 52.9415ZM94.4903 54.6739C94.5831 54.1648 94.6117 53.8466 94.6046 53.6344C94.5832 53.4082 94.6903 53.1678 94.919 53.1395C95.0118 53.1324 95.0976 53.1183 95.1762 53.1112C95.412 53.0617 95.6406 53.2314 95.5906 53.4647C95.5549 53.6415 95.3905 54.2991 95.3191 54.688C95.5334 54.3416 95.8764 53.5567 96.3694 53.2314C96.5695 53.097 96.7409 53.0263 96.8767 52.9768C97.1053 52.9132 97.2625 53.1536 97.1911 53.3657C97.0982 53.6344 96.8124 53.79 96.5266 53.8537C96.0836 53.9526 95.5406 54.3486 95.2762 55.2891C95.1333 55.7841 94.919 57.0215 94.8689 57.6367C94.8404 57.9054 94.6117 58.1246 94.3402 58.1175H94.2902C94.0544 58.1175 93.8472 57.9125 93.9115 57.6791C93.9615 57.5165 94.0044 57.3538 94.0258 57.2124L94.4903 54.6739ZM92.604 53.6769C92.4254 53.6203 92.161 53.5284 91.8037 53.5284C90.2104 53.5284 89.7888 55.5507 89.7888 56.3356C89.7888 56.9791 90.0246 57.4599 90.6391 57.4599C90.9892 57.4599 91.4036 57.3043 91.7394 56.8235C92.0109 56.4275 92.1896 55.8901 92.361 54.978L92.604 53.6769ZM93.1899 53.0829C93.4185 53.0051 93.6043 53.2526 93.5471 53.4789C93.4685 53.79 93.3685 54.2638 93.2042 55.1335L93.0327 56.0598C92.8755 56.9579 92.8255 57.4528 92.8255 57.7569C92.8255 57.9832 92.6111 58.1387 92.3825 58.1529C92.1467 58.1599 91.9466 57.9761 91.9681 57.7498C92.0038 57.368 92.1395 56.675 92.1395 56.5619C91.7037 57.1346 91.0892 58.2589 90.2175 58.2589C89.5245 58.2589 88.8385 57.764 88.8385 56.6962C88.8385 56.2508 88.9957 54.5042 90.4105 53.4789C90.6391 53.3092 91.175 52.9556 91.9609 52.9556C92.3896 52.9556 92.6683 53.0546 92.9755 53.1678L93.1899 53.0829ZM85.3946 54.8648C86.052 54.886 86.595 54.8648 86.9951 54.681C87.7596 54.3062 87.9025 53.4294 87.9025 53.0688C87.9025 52.1283 87.0309 52.1283 86.5521 52.1283C86.4307 52.1283 86.2663 52.1354 85.9591 52.1495C85.7733 52.9627 85.759 53.0546 85.6733 53.4152L85.3946 54.8648ZM84.7516 53.4011C84.8731 52.7364 84.9302 52.3334 84.9588 52.0859C84.9874 51.8172 85.1589 51.5626 85.4304 51.5697H85.5876C85.8233 51.5697 86.1234 51.5626 86.4092 51.5485C86.6807 51.5414 86.938 51.5273 87.0809 51.5273C88.0955 51.5273 88.9243 51.8525 88.9243 53.0051C88.9243 53.4506 88.7528 55.5507 85.8948 55.5507C85.6233 55.5507 85.4589 55.5436 85.2803 55.5154L84.9659 57.2761C84.9445 57.4104 84.9302 57.5165 84.9159 57.6155C84.8802 57.9054 84.6516 58.1317 84.3586 58.1317H84.3086H84.1943C83.9513 58.1317 83.7799 57.8912 83.8513 57.6579C83.9942 57.2195 84.1085 56.6962 84.2086 56.1942L84.7516 53.4011Z" fill="white"/>
</svg>
