<svg width="147" height="59" viewBox="0 0 147 59" fill="none" xmlns="http://www.w3.org/2000/svg">
<path d="M1.15729 17.1817C1.15729 8.76895 8.08315 1.92066 16.5779 1.92066C22.4539 1.92066 27.5722 5.19131 30.1731 9.98512C21.7141 14.041 15.8382 22.5482 15.6592 32.4133C7.58802 31.9469 1.15729 25.2993 1.15729 17.1817ZM31.9985 17.1817C31.9985 25.2698 25.6036 31.8996 17.5562 32.4074C17.7292 23.298 23.1578 15.4342 30.9606 11.6854C31.6287 13.3975 31.9985 15.2512 31.9985 17.1817ZM62.1836 44.0613C58.1569 51.3937 50.3124 56.3469 41.3046 56.3469C28.4491 56.3469 17.944 46.1807 17.5622 33.5527C26.2359 33.045 33.1439 25.8956 33.1439 17.1817C33.1439 15.0741 32.7383 13.0668 32.0045 11.2131C34.8619 10.0028 38.0057 9.33571 41.3046 9.33571C50.0917 9.33571 57.7871 14.0823 61.8973 21.1313H64.0985C59.8213 13.0255 51.1714 7.47014 41.3046 7.47014C37.7253 7.47014 34.3131 8.2022 31.2171 9.51872C28.4312 4.32347 22.9132 0.78125 16.5779 0.78125C7.42696 0.78125 0 8.13726 0 17.1817C0 25.931 6.94972 33.0981 15.6771 33.5645C16.0649 47.2256 27.4171 58.2183 41.3106 58.2183C51.3683 58.2183 60.1434 52.4268 64.3431 44.0672H62.1836V44.0613Z" fill="#A52B41"/>
<path d="M48.2074 34.639C48.2074 39.5863 45.5349 41.381 40.7208 41.381C36.2348 41.381 33.3535 39.539 33.3535 35.4891V35.1467H38.2332C38.3287 36.9355 38.8417 37.9805 40.7745 37.9805C42.2897 37.9805 43.3337 37.1953 43.3337 34.6153V24.3252H48.2194V34.639H48.2074Z" fill="#A52B41"/>
<path d="M73.4696 33.7418V32.7145C73.4696 25.7718 68.1186 23.6523 63.3463 23.6523C54.9648 23.6523 52.6025 28.0329 52.6025 32.6142C52.6025 37.1954 54.9648 41.576 63.3463 41.576C66.7287 41.576 72.5151 40.6078 73.0103 36.4634H67.6891C67.1582 38.0574 64.9569 38.5887 63.4835 38.5887C60.6499 38.5887 57.7865 37.2249 57.7865 33.7418H73.4696ZM57.7865 30.7545C58.0848 27.8971 60.5544 26.6396 63.0182 26.6396C65.7384 26.6396 67.9754 27.7377 68.2797 30.7545H57.7865Z" fill="#A52B41"/>
<path d="M95.4051 33.346C95.4051 39.1022 92.1718 41.3751 86.3376 41.3751C80.4736 41.3751 77.2344 39.2852 77.2344 33.9836V24.3252H82.126V33.6471C82.126 36.6403 83.6353 37.9804 86.3376 37.9804C89.541 37.9804 90.5194 35.9732 90.5194 33.0509V24.3252H95.3991V33.346H95.4051Z" fill="#A52B41"/>
<path d="M99.4375 24.3252H104.323V37.5318H113.814V40.9441H99.4375V24.3252Z" fill="#A52B41"/>
<path d="M122.538 24.3204L117.646 24.3296L117.678 40.9485L122.57 40.9393L122.538 24.3204Z" fill="#A52B41"/>
<path d="M127.213 28.2277C127.213 26.7695 127.141 25.3467 127.069 24.2781H131.967C132.033 25.205 132.104 26.1024 132.104 27.0352H132.17C133.882 24.6796 136.196 23.6523 139.287 23.6523C142.305 23.6523 147 25.2759 147 30.6837V40.9443H141.905V32.1123C141.905 27.9975 139.99 27.0352 137.539 27.0352C134.89 27.0352 132.307 28.8594 132.307 32.9093V40.9443H127.213V28.2277Z" fill="#A52B41"/>
<path d="M144.536 45.8618C144.178 46.2574 144.023 47.0249 143.969 47.4499C144.536 47.444 145.091 47.1311 145.532 46.7179C145.753 46.5053 145.914 46.2338 145.914 45.9386C145.914 45.5844 145.664 45.425 145.383 45.425C145.216 45.4191 144.876 45.4722 144.536 45.8618ZM144.882 48.9259C145.216 48.9259 145.467 48.8491 145.658 48.7724C145.759 48.7251 145.86 48.8373 145.831 48.9495C145.777 49.1384 145.64 49.3155 145.443 49.3627C145.246 49.4041 145.001 49.4395 144.697 49.4395C143.444 49.3982 143.134 48.6838 143.116 47.7038C143.116 46.8359 143.528 46.1511 143.778 45.8382C144.321 45.177 145.037 44.9527 145.55 44.9527C146.29 44.9527 146.672 45.36 146.672 45.8914C146.672 46.1393 146.576 46.4463 146.421 46.6825C146.206 47.0131 145.914 47.1961 145.664 47.3201C145.103 47.5857 144.572 47.6034 143.939 47.627C143.945 47.627 143.677 48.9377 144.882 48.9259ZM143.075 45.0353C143.248 45.0766 143.289 45.2833 143.224 45.4486C143.158 45.6021 142.961 45.6257 142.806 45.5667C142.711 45.5371 142.591 45.5135 142.442 45.5135C141.374 45.5135 140.742 46.5762 140.742 47.6566C140.742 48.0285 140.82 48.4831 141.237 48.7487C141.44 48.8786 141.673 48.9259 141.905 48.9259C142.108 48.9259 142.275 48.8963 142.436 48.8373C142.556 48.8078 142.627 48.9436 142.585 49.0616C142.514 49.2506 142.335 49.3804 142.138 49.4041C142.013 49.4218 141.875 49.4277 141.744 49.4277C140.581 49.4277 139.889 48.7665 139.889 47.7038C139.889 46.4817 140.742 44.9763 142.556 44.9763C142.77 44.9822 142.931 45.0058 143.075 45.0353ZM135.952 46.5526C136.005 46.2338 136.071 45.8323 136.071 45.5371V45.4899C136.065 45.3069 136.125 45.1062 136.31 45.0885C136.405 45.0826 136.489 45.0648 136.578 45.0471C136.769 45.0058 136.942 45.1652 136.9 45.3541C136.87 45.5076 136.769 46.0153 136.721 46.2869C136.865 46.0744 137.061 45.5312 137.288 45.3482C137.604 45.1062 137.992 44.9586 138.392 44.9586C138.827 44.9586 139.412 45.1298 139.412 45.7733C139.412 45.915 139.388 46.0803 139.316 46.4522L139.119 47.5444C139.054 47.8809 138.946 48.5126 138.923 48.9141C138.905 49.1384 138.708 49.3037 138.481 49.3037H138.41C138.219 49.3096 138.07 49.1384 138.117 48.9613C138.189 48.7192 138.272 48.3355 138.41 47.568L138.505 47.0426C138.696 45.9858 138.75 45.5726 137.992 45.5726C137.622 45.5726 137.205 45.8146 136.972 46.1098C136.68 46.4876 136.596 47.0072 136.524 47.4381L136.381 48.3532C136.34 48.5953 136.328 48.7724 136.316 48.9259C136.298 49.1443 136.095 49.2919 135.874 49.2919H135.809C135.612 49.2978 135.445 49.1384 135.498 48.9554C135.588 48.6661 135.642 48.3827 135.695 48.0167L135.952 46.5526ZM133.22 45.8618C132.862 46.2574 132.707 47.0249 132.653 47.4499C133.22 47.444 133.774 47.1311 134.216 46.7179C134.437 46.5053 134.598 46.2338 134.598 45.9386C134.598 45.5844 134.347 45.425 134.067 45.425C133.9 45.4191 133.56 45.4722 133.22 45.8618ZM133.566 48.9259C133.9 48.9259 134.15 48.8491 134.341 48.7724C134.443 48.7251 134.544 48.8373 134.514 48.9495C134.46 49.1384 134.323 49.3155 134.126 49.3627C133.93 49.4041 133.685 49.4395 133.381 49.4395C132.128 49.3982 131.818 48.6838 131.8 47.7038C131.8 46.8359 132.211 46.1511 132.462 45.8382C133.005 45.177 133.721 44.9527 134.234 44.9527C134.973 44.9527 135.355 45.36 135.355 45.8914C135.355 46.1393 135.26 46.4463 135.105 46.6825C134.89 47.0131 134.598 47.1961 134.347 47.3201C133.786 47.5857 133.255 47.6034 132.623 47.627C132.629 47.627 132.361 48.9377 133.566 48.9259ZM131.687 43.9667C131.687 44.2147 131.496 44.6162 131.144 44.6162C130.953 44.6162 130.756 44.4922 130.756 44.2088C130.756 43.9727 130.929 43.583 131.311 43.583C131.514 43.583 131.687 43.707 131.687 43.9667ZM131.048 47.4204C130.905 48.1997 130.845 48.6661 130.822 48.9377C130.804 49.1561 130.601 49.3037 130.38 49.3037H130.314C130.118 49.3096 129.98 49.1089 130.04 48.9141C130.082 48.7428 130.136 48.5067 130.195 48.1643L130.338 47.3968C130.529 46.3577 130.601 45.8441 130.589 45.5607C130.583 45.3836 130.637 45.1652 130.827 45.1475C130.941 45.1298 131.036 45.118 131.12 45.1003C131.311 45.053 131.46 45.2419 131.418 45.4309C131.388 45.5844 131.341 45.7969 131.275 46.1511L131.048 47.4204ZM127.964 46.4286C128.042 46.0035 128.065 45.7379 128.06 45.5607C128.042 45.3718 128.131 45.1711 128.322 45.1475C128.4 45.1416 128.471 45.1298 128.537 45.1239C128.734 45.0825 128.925 45.2242 128.883 45.4191C128.853 45.5667 128.716 46.1157 128.656 46.4404C128.835 46.1511 129.121 45.4958 129.533 45.2242C129.7 45.1121 129.843 45.053 129.957 45.0117C130.147 44.9586 130.279 45.1593 130.219 45.3364C130.141 45.5607 129.903 45.6906 129.664 45.7438C129.294 45.8264 128.841 46.157 128.62 46.9422C128.501 47.3555 128.322 48.3886 128.28 48.9022C128.256 49.1266 128.065 49.3096 127.839 49.3037H127.797C127.6 49.3037 127.427 49.1325 127.481 48.9377C127.523 48.8019 127.558 48.6661 127.576 48.548L127.964 46.4286ZM125.972 44.6398C126.145 44.6398 126.383 44.5748 126.598 44.4509C126.962 44.1852 127.022 44.1202 127.087 43.9254C127.141 43.7306 127.022 43.583 126.849 43.583C126.586 43.583 126.509 43.7365 126.455 43.9608C126.413 44.1084 126.288 44.256 126.031 44.439C125.906 44.5099 125.858 44.6398 125.972 44.6398ZM125.238 45.8618C124.886 46.2574 124.725 47.0249 124.671 47.4499C125.238 47.444 125.793 47.1311 126.234 46.7179C126.455 46.5053 126.61 46.2338 126.61 45.9386C126.61 45.5844 126.359 45.425 126.079 45.425C125.912 45.4191 125.578 45.4722 125.238 45.8618ZM125.584 48.9259C125.912 48.9259 126.168 48.8491 126.359 48.7724C126.461 48.7251 126.562 48.8373 126.532 48.9495C126.479 49.1384 126.341 49.3155 126.145 49.3627C125.948 49.4041 125.703 49.4395 125.405 49.4395C124.152 49.3982 123.842 48.6838 123.824 47.7038C123.824 46.8359 124.236 46.1511 124.486 45.8382C125.029 45.177 125.739 44.9527 126.252 44.9527C126.992 44.9527 127.374 45.36 127.374 45.8914C127.374 46.1393 127.278 46.4463 127.123 46.6825C126.908 47.0131 126.616 47.1961 126.365 47.326C125.805 47.5916 125.274 47.6093 124.641 47.6329C124.641 47.6329 124.373 48.9377 125.584 48.9259ZM120.68 47.0662C120.537 47.5267 120.388 48.3473 120.328 48.6838C120.495 48.7724 120.692 48.8786 121.044 48.8786C121.635 48.8786 121.927 48.5893 122.07 48.4181C122.536 47.8809 122.673 46.954 122.673 46.4935C122.673 46.0389 122.476 45.6434 121.987 45.6434C121.468 45.6434 120.955 46.1747 120.68 47.0662ZM123.472 46.2692C123.472 47.0898 123.108 48.1289 122.518 48.7133C122.1 49.1266 121.539 49.3922 120.949 49.3922C120.782 49.3922 120.537 49.3686 120.209 49.2978L120.03 50.2896C119.982 50.5612 119.958 50.756 119.947 50.9095C119.923 51.1338 119.756 51.3405 119.529 51.3228H119.457C119.261 51.3228 119.082 51.1634 119.135 50.9803C119.237 50.632 119.326 50.1656 119.41 49.7288L119.905 47.1725C119.97 46.8359 120 46.6411 120.06 46.2574C120.126 45.9091 120.137 45.6729 120.126 45.5076C120.108 45.3423 120.167 45.1534 120.328 45.1416C120.448 45.1357 120.543 45.118 120.621 45.1003C120.818 45.0707 121.002 45.2183 120.961 45.4072L120.734 46.5231C120.913 46.2515 121.193 45.5312 121.605 45.2419C121.7 45.1711 121.975 44.9763 122.44 44.9763C123.066 44.9822 123.472 45.425 123.472 46.2692ZM118.163 45.9327C118.342 45.7142 118.461 45.5667 118.539 45.4545C118.706 45.236 118.95 45.0648 119.225 45.0707H119.302H119.374C119.505 45.0707 119.547 45.236 119.451 45.3305C119.404 45.3777 119.356 45.425 119.302 45.4781C119.207 45.5726 118.771 46.0389 118.67 46.1511L117.775 47.1252L118.509 48.5775C118.598 48.7665 118.664 48.8963 118.724 49.0085C118.795 49.1384 118.694 49.3037 118.533 49.2978H118.461H118.384C118.109 49.3155 117.871 49.1325 117.769 48.8904C117.745 48.8196 117.715 48.7487 117.674 48.6661L117.256 47.7156L116.457 48.6366C116.326 48.7842 116.23 48.9022 116.159 48.9908C115.991 49.1915 115.741 49.3214 115.478 49.3096H115.401C115.264 49.3096 115.162 49.1679 115.258 49.0735C115.347 48.9849 115.472 48.8609 115.663 48.6779L117.006 47.2315L116.296 45.8146C116.23 45.6965 116.164 45.5667 116.075 45.425C115.98 45.2715 116.105 45.0825 116.296 45.0825H116.385H116.481C116.725 45.0825 116.946 45.236 117.018 45.4722C117.065 45.6021 117.137 45.7674 117.244 46.0094L117.519 46.6529L118.163 45.9327ZM113.253 45.8618C112.895 46.2574 112.74 47.0249 112.687 47.4499C113.253 47.444 113.808 47.1311 114.25 46.7179C114.47 46.5053 114.625 46.2338 114.625 45.9386C114.625 45.5844 114.375 45.425 114.094 45.425C113.933 45.4191 113.593 45.4722 113.253 45.8618ZM113.605 48.9259C113.939 48.9259 114.19 48.8491 114.381 48.7724C114.482 48.7251 114.584 48.8373 114.554 48.9495C114.5 49.1384 114.363 49.3155 114.166 49.3627C113.969 49.4041 113.725 49.4395 113.42 49.4395C112.168 49.3982 111.857 48.6838 111.84 47.7038C111.84 46.8359 112.251 46.1511 112.502 45.8382C113.045 45.177 113.76 44.9527 114.273 44.9527C115.013 44.9527 115.395 45.36 115.395 45.8914C115.395 46.1393 115.299 46.4463 115.144 46.6825C114.93 47.0131 114.637 47.1961 114.387 47.3201C113.826 47.5857 113.295 47.6034 112.663 47.627C112.663 47.627 112.394 48.9377 113.605 48.9259ZM111.189 44.8641C111.088 44.9763 110.945 45.0353 110.796 45.0353C110.7 45.0353 110.629 44.9409 110.682 44.8641C110.969 44.4863 111.142 44.1498 111.213 43.831C111.219 43.8014 111.261 43.7778 111.291 43.7837C111.332 43.7837 111.368 43.7896 111.41 43.7896H111.476C111.529 43.7896 111.613 43.7896 111.696 43.7837C111.84 43.766 111.947 43.9195 111.875 44.0317C111.678 44.3446 111.488 44.5571 111.189 44.8641ZM108.851 49.3627C108.099 49.3568 108.028 48.8314 108.051 48.4299C108.069 48.1584 108.135 47.8278 108.135 47.751C108.213 47.3201 108.159 47.6507 108.475 45.85C108.63 44.9527 108.696 44.4922 108.69 44.2265C108.684 44.0494 108.755 43.8369 108.934 43.8133C109.03 43.8073 109.107 43.7896 109.197 43.766C109.388 43.7188 109.567 43.8841 109.531 44.0789C109.465 44.3682 109.406 44.7165 109.268 45.4132L108.905 47.5208C108.851 47.9222 108.732 48.3827 108.791 48.5598C108.791 48.5598 108.863 48.8314 109.107 48.8491C109.304 48.8491 109.376 48.8196 109.531 48.7724C109.65 48.731 109.728 48.8727 109.68 48.9967C109.608 49.1856 109.435 49.3096 109.233 49.3332C109.107 49.3568 108.982 49.3627 108.851 49.3627ZM104.031 47.3496C103.81 47.2197 103.392 46.9658 103.392 46.4345C103.392 45.9917 103.655 45.5962 104.013 45.3246C104.413 45.0294 104.967 44.9763 105.272 44.9763C105.474 44.9763 105.624 44.994 105.779 45.0294C105.976 45.0707 106.065 45.2892 105.981 45.4663C105.904 45.6316 105.695 45.667 105.54 45.5903C105.421 45.5371 105.272 45.4958 105.081 45.4958C104.478 45.4958 104.15 45.8795 104.15 46.1924C104.15 46.5349 104.442 46.7002 104.741 46.8655L105.14 47.1075C105.361 47.2433 105.701 47.4499 105.701 47.9458C105.701 48.3001 105.546 48.7487 105.093 49.0794C104.621 49.4159 104.096 49.4395 103.768 49.4395C103.542 49.4395 103.375 49.4218 103.208 49.3863C102.981 49.3391 102.868 49.0971 102.939 48.8786C102.993 48.7074 103.19 48.6602 103.351 48.7369C103.5 48.8078 103.709 48.8609 104.031 48.8609C104.657 48.8609 104.985 48.5185 104.985 48.1997C104.985 47.9281 104.765 47.7805 104.52 47.6389L104.031 47.3496ZM99.3658 46.5526C99.4195 46.2338 99.4851 45.8323 99.4851 45.5371V45.4899C99.4792 45.3069 99.5388 45.1062 99.7238 45.0885C99.8192 45.0826 99.9027 45.0648 99.9922 45.0471C100.183 45.0058 100.356 45.1652 100.314 45.3541C100.285 45.5076 100.177 46.0153 100.129 46.2869C100.273 46.0744 100.469 45.5312 100.696 45.3482C101.012 45.1062 101.4 44.9586 101.806 44.9586C102.241 44.9586 102.826 45.1298 102.826 45.7733C102.826 45.915 102.802 46.0803 102.73 46.4522L102.533 47.5444C102.474 47.8809 102.36 48.5126 102.337 48.9141C102.319 49.1384 102.122 49.3037 101.895 49.3037H101.824C101.633 49.3096 101.484 49.1384 101.531 48.9613C101.603 48.7192 101.692 48.3355 101.824 47.568L101.919 47.0426C102.11 45.9858 102.164 45.5726 101.406 45.5726C101.036 45.5726 100.619 45.8146 100.386 46.1098C100.094 46.4876 100.004 47.0072 99.9325 47.4381L99.7894 48.3532C99.7476 48.5953 99.7357 48.7724 99.7238 48.9259C99.7059 49.1443 99.503 49.2919 99.2823 49.2919H99.2227C99.0258 49.2978 98.8588 49.1384 98.9125 48.9554C99.0019 48.6661 99.0556 48.3827 99.1093 48.0167L99.3658 46.5526ZM97.5166 45.6847C97.4211 45.5962 97.2302 45.4722 96.914 45.4722C95.6494 45.4722 95.3451 47.3023 95.3451 47.9163C95.3451 48.6602 95.7389 48.9318 96.1922 48.9318C97.5881 48.9318 97.779 46.7887 97.779 46.4168C97.779 46.2397 97.7731 45.9209 97.5166 45.6847ZM98.1966 45.3718C98.5665 45.732 98.5844 46.2161 98.5844 46.4522C98.5844 47.6743 97.8268 49.4277 96.1206 49.4277C95.709 49.4277 95.3093 49.3096 95.0051 49.038C94.8321 48.8786 94.5577 48.5716 94.5577 47.8278C94.5577 46.5703 95.363 44.9763 97.0393 44.9763C97.5344 44.9763 97.9341 45.1062 98.1966 45.3718ZM92.2729 45.8618C91.915 46.2574 91.7599 47.0249 91.7062 47.4499C92.2729 47.444 92.8277 47.1311 93.2692 46.7179C93.4899 46.5053 93.651 46.2338 93.651 45.9386C93.651 45.5844 93.4004 45.425 93.12 45.425C92.953 45.4191 92.613 45.4722 92.2729 45.8618ZM92.6189 48.9259C92.953 48.9259 93.2035 48.8491 93.3944 48.7724C93.4958 48.7251 93.5973 48.8373 93.5674 48.9495C93.5138 49.1384 93.3765 49.3155 93.1797 49.3627C92.9828 49.4041 92.7382 49.4395 92.434 49.4395C91.1813 49.3982 90.8711 48.6838 90.8532 47.7038C90.8532 46.8359 91.2648 46.1511 91.5153 45.8382C92.0582 45.177 92.774 44.9527 93.2871 44.9527C94.0268 44.9527 94.4086 45.36 94.4086 45.8914C94.4086 46.1393 94.3131 46.4463 94.158 46.6825C93.9433 47.0131 93.651 47.1961 93.4004 47.3201C92.8397 47.5857 92.3087 47.6034 91.6764 47.627C91.6824 47.627 91.4139 48.9377 92.6189 48.9259ZM89.0278 45.4781C87.6378 45.4781 87.3634 47.1725 87.3634 47.7923C87.3634 47.9813 87.3873 48.2469 87.5066 48.4359C87.6318 48.6366 87.8287 48.7487 88.0733 48.7487C88.4431 48.7487 88.7653 48.5067 88.98 48.1938C89.2783 47.7392 89.4036 47.1311 89.7078 45.6375C89.5706 45.5726 89.3558 45.4781 89.0278 45.4781ZM89.851 48.6838C89.6481 49.8114 89.493 50.6793 88.3894 51.0866C87.9957 51.2342 87.5125 51.2991 87.089 51.2991C86.8504 51.2991 86.6714 51.2814 86.5163 51.2519C86.3314 51.2224 86.2479 51.0099 86.3314 50.8446C86.4209 50.6734 86.6177 50.5966 86.7967 50.6556C86.9279 50.697 87.0949 50.7265 87.3276 50.7265C87.775 50.7265 88.2284 50.6025 88.5386 50.2719C88.9204 49.9177 89.0755 49.1207 89.2902 47.9931C89.0755 48.3119 88.5445 49.4159 87.775 49.4159C87.3336 49.4159 86.9876 49.2033 86.7967 48.9022C86.6058 48.6071 86.5939 48.2528 86.5939 48.0757C86.5939 46.8182 87.4767 44.9881 89.159 44.9881C89.5766 44.9881 89.839 45.1121 90.0538 45.2006C90.1194 45.177 90.1731 45.1593 90.2208 45.1357C90.3938 45.0707 90.543 45.2597 90.4952 45.4486C90.4237 45.6906 90.3521 46.0035 90.2328 46.6647L89.851 48.6838ZM85.5141 45.5962C85.365 45.5489 85.1443 45.4722 84.846 45.4722C83.5217 45.4722 83.1637 47.1607 83.1637 47.816C83.1637 48.3532 83.3606 48.7547 83.8736 48.7547C84.1659 48.7547 84.5119 48.6248 84.7923 48.2233C85.019 47.8927 85.1681 47.444 85.3113 46.6825L85.5141 45.5962ZM86.0033 45.1003C86.1942 45.0353 86.3493 45.2419 86.3015 45.4309C86.2359 45.6906 86.1524 46.0862 86.0152 46.8123L85.872 47.5857C85.7408 48.3355 85.699 48.7487 85.699 49.0026C85.699 49.1915 85.5201 49.3214 85.3292 49.3332C85.1323 49.3391 84.9653 49.1856 84.9832 48.9967C85.013 48.6779 85.1264 48.0993 85.1264 48.0049C84.7625 48.4831 84.2494 49.4218 83.5217 49.4218C82.943 49.4218 82.3703 49.0085 82.3703 48.1171C82.3703 47.7451 82.5016 46.2869 83.6827 45.4309C83.8736 45.2892 84.321 44.994 84.9772 44.994C85.3292 44.994 85.5678 45.0766 85.8183 45.1711L86.0033 45.1003ZM81.6903 44.9822C81.7559 44.6398 81.7977 44.4272 81.8692 44.1793C81.917 44.0022 81.7261 43.8605 81.5471 43.8959C81.2846 43.9608 81.0997 44.1675 81.0758 44.4272C81.0579 44.6103 81.0341 44.7637 80.9983 44.9822L80.9207 44.9763C80.7716 44.9586 80.6463 45.0826 80.6225 45.236C80.5986 45.3659 80.694 45.4958 80.8253 45.4958L80.8969 45.5017L80.3838 48.1111C80.2884 48.6012 80.2705 48.8609 80.4614 49.1207C80.5807 49.2742 80.8849 49.4277 81.3323 49.4277C81.398 49.4277 81.4576 49.4277 81.5232 49.4218C81.7261 49.3982 81.8692 49.2269 81.917 49.0321C81.9468 48.9081 81.8513 48.7842 81.7261 48.8137C81.6604 48.8314 81.5889 48.8373 81.5113 48.8373C81.2429 48.8373 81.052 48.7133 81.052 48.4063C81.052 48.182 81.1116 47.8278 81.2011 47.4204C81.2966 46.9304 81.4874 45.9917 81.5769 45.5076C81.6903 45.5076 81.9706 45.5076 82.1317 45.5135C82.3047 45.5135 82.4717 45.4132 82.5075 45.2479C82.5374 45.1062 82.43 44.9645 82.2868 44.9763C82.1496 44.9763 81.8931 44.9763 81.6903 44.9822ZM78.111 46.4286C78.1886 46.0035 78.2124 45.7379 78.2065 45.5607C78.1886 45.3718 78.278 45.1711 78.4689 45.1475C78.5465 45.1416 78.6181 45.1298 78.6837 45.1239C78.8806 45.0825 79.0714 45.2242 79.0297 45.4191C78.9999 45.5667 78.8627 46.1157 78.803 46.4404C78.982 46.1511 79.2683 45.4958 79.6799 45.2242C79.847 45.1121 79.9901 45.053 80.1035 45.0117C80.2944 44.9586 80.4256 45.1593 80.3659 45.3364C80.2884 45.5607 80.0498 45.6906 79.8112 45.7438C79.4413 45.8264 78.9879 46.157 78.7672 46.9422C78.6479 47.3555 78.4689 48.3886 78.4272 48.9022C78.4033 49.1266 78.2124 49.3096 77.9857 49.3037H77.944C77.7471 49.3037 77.5741 49.1325 77.6278 48.9377C77.6696 48.8019 77.7054 48.6661 77.7233 48.548L78.111 46.4286ZM76.5361 45.5962C76.387 45.5489 76.1663 45.4722 75.868 45.4722C74.5377 45.4722 74.1858 47.1607 74.1858 47.816C74.1858 48.3532 74.3826 48.7547 74.8957 48.7547C75.188 48.7547 75.5339 48.6248 75.8143 48.2233C76.041 47.8927 76.1901 47.444 76.3333 46.6825L76.5361 45.5962ZM77.0253 45.1003C77.2162 45.0353 77.3713 45.2419 77.3236 45.4309C77.258 45.6906 77.1744 46.0862 77.0372 46.8123L76.8941 47.5857C76.7628 48.3355 76.7211 48.7487 76.7211 49.0026C76.7211 49.1915 76.5421 49.3214 76.3512 49.3332C76.1544 49.3391 75.9873 49.1856 76.0052 48.9967C76.0351 48.6779 76.1484 48.0993 76.1484 48.0049C75.7845 48.4831 75.2715 49.4218 74.5437 49.4218C73.965 49.4218 73.3924 49.0085 73.3924 48.1171C73.3924 47.7451 73.5236 46.2869 74.7048 45.4309C74.8957 45.2892 75.3431 44.994 75.9993 44.994C76.3572 44.994 76.5898 45.0766 76.8464 45.1711L77.0253 45.1003ZM70.517 46.588C71.0658 46.6057 71.5192 46.588 71.8533 46.4345C72.4916 46.1216 72.6109 45.3895 72.6109 45.0885C72.6109 44.3033 71.8831 44.3033 71.4834 44.3033C71.382 44.3033 71.2448 44.3092 70.9883 44.321C70.8332 44.9999 70.8213 45.0766 70.7497 45.3777L70.517 46.588ZM69.9801 45.3659C70.0816 44.811 70.1293 44.4745 70.1531 44.2678C70.177 44.0435 70.3202 43.831 70.5469 43.8369H70.6781C70.875 43.8369 71.1255 43.831 71.3641 43.8192C71.5908 43.8133 71.8056 43.8014 71.9249 43.8014C72.772 43.8014 73.4639 44.073 73.4639 45.0353C73.4639 45.4073 73.3208 47.1607 70.9346 47.1607C70.7079 47.1607 70.5707 47.1547 70.4216 47.1311L70.1591 48.6012C70.1412 48.7133 70.1293 48.8019 70.1173 48.8845C70.0875 49.1266 69.8966 49.3155 69.652 49.3155H69.6103H69.5148C69.312 49.3155 69.1688 49.1148 69.2285 48.92C69.3478 48.5539 69.4433 48.1171 69.5268 47.6979L69.9801 45.3659Z" fill="#59595B"/>
</svg>
