<svg width="25" height="25" viewBox="0 0 25 25" fill="none" xmlns="http://www.w3.org/2000/svg">
<path fill-rule="evenodd" clip-rule="evenodd" d="M2.08333 11.1111H8.98148C10.1389 11.1111 11.0648 10.1852 11.0648 9.02778V2.08333C11.0648 0.925926 10.1389 0 8.98148 0H2.08333C0.925926 0 0 0.925926 0 2.08333V8.98148C0 10.1852 0.925926 11.1111 2.08333 11.1111Z" fill="#A52B41"/>
<path fill-rule="evenodd" clip-rule="evenodd" d="M15.972 11.1111H22.8702C24.0276 11.1111 24.9535 10.1852 24.9535 9.02778V2.08333C24.9535 0.925926 24.0276 0 22.8702 0H15.972C14.8146 0 13.8887 0.925926 13.8887 2.08333V8.98148C13.8887 10.1852 14.8146 11.1111 15.972 11.1111Z" fill="#A52B41"/>
<path fill-rule="evenodd" clip-rule="evenodd" d="M2.08333 24.9998H8.98148C10.1389 24.9998 11.0648 24.0739 11.0648 22.9164V15.972C11.0648 14.8146 10.1389 13.8887 8.98148 13.8887H2.08333C0.925926 13.8887 0 14.8146 0 15.972V22.8702C0 24.0739 0.925926 24.9998 2.08333 24.9998Z" fill="#A52B41"/>
<path d="M19.4442 24.9998C22.5125 24.9998 24.9998 22.5125 24.9998 19.4442C24.9998 16.376 22.5125 13.8887 19.4442 13.8887C16.376 13.8887 13.8887 16.376 13.8887 19.4442C13.8887 22.5125 16.376 24.9998 19.4442 24.9998Z" fill="#EAEAEA"/>
</svg>
