<svg width="11" height="17" viewBox="0 0 11 17" fill="none" xmlns="http://www.w3.org/2000/svg">
<path d="M1.08231 2.53561L7.55635 8.5L1.08231 14.4644L1.08229 14.4644C0.639235 14.8726 0.639235 15.5437 1.08229 15.9519C1.51361 16.3494 2.20509 16.3494 2.63641 15.9519C2.63642 15.9519 2.63642 15.9519 2.63642 15.9519L9.91769 9.24378L9.91771 9.24376C10.3608 8.83552 10.3608 8.16448 9.91771 7.75624L9.91769 7.75622L2.63642 1.04807C2.63642 1.04807 2.63642 1.04806 2.63641 1.04806C2.20509 0.650643 1.51361 0.650647 1.08229 1.04807C0.639235 1.45632 0.639235 2.12735 1.08229 2.5356L1.08231 2.53561Z" fill="#0F171F" stroke="#DDDDDD" stroke-width="0.5"/>
</svg>
