<svg width="11" height="17" viewBox="0 0 11 17" fill="none" xmlns="http://www.w3.org/2000/svg">
<path fill-rule="evenodd" clip-rule="evenodd" d="M3.07468 8.5L9.7483 2.35175C10.0839 2.04252 10.0839 1.54115 9.7483 1.23192C9.4127 0.922692 8.86858 0.922692 8.53298 1.23192L1.2517 7.94009C0.9161 8.24932 0.9161 8.75068 1.2517 9.05991L8.53298 15.7681C8.86858 16.0773 9.4127 16.0773 9.7483 15.7681C10.0839 15.4588 10.0839 14.9575 9.7483 14.6483L3.07468 8.5Z" fill="#DDDDDD"/>
<path d="M9.91769 2.53561L3.44365 8.5L9.91769 14.4644L9.9177 14.4644C10.3608 14.8726 10.3608 15.5437 9.9177 15.9519C9.48639 16.3494 8.79491 16.3494 8.36359 15.9519C8.36358 15.9519 8.36358 15.9519 8.36357 15.9519L1.08231 9.24378L1.08229 9.24376C0.639235 8.83552 0.639235 8.16448 1.08229 7.75624L1.08231 7.75622L8.36358 1.04807C8.36358 1.04807 8.36358 1.04806 8.36359 1.04806C8.79491 0.650643 9.48639 0.650647 9.91771 1.04807C10.3608 1.45632 10.3608 2.12735 9.91771 2.5356L9.91769 2.53561Z" stroke="#DDDDDD" stroke-opacity="0.5" stroke-width="0.5"/>
</svg>
