<svg width="35" height="38" viewBox="0 0 35 38" fill="none" xmlns="http://www.w3.org/2000/svg">
<path d="M14.5352 3.36893C7.23766 4.28393 1.03516 10.4309 1.03516 17.8769C1.03511 20.1762 1.57861 22.4429 2.62134 24.4921C3.66406 26.5413 5.17646 28.315 7.03516 29.6684V36.2504M29.5346 25.0004V24.2504H32.9996C33.1177 24.25 33.234 24.2218 33.3391 24.1679C33.4442 24.1141 33.5351 24.0362 33.6043 23.9406C33.6736 23.845 33.7194 23.7344 33.7378 23.6177C33.7563 23.5011 33.747 23.3818 33.7106 23.2694C30.8471 14.3984 28.7861 4.85844 19.0346 3.43344M22.0354 36.2504V33.2504H25.0354C25.4984 33.2506 25.9588 33.1798 26.4004 33.0404M14.5799 14.1194C13.071 14.6408 11.7957 15.6801 10.9805 17.0527C10.1653 18.4254 9.86301 20.0425 10.1273 21.6169C10.3916 23.1914 11.2054 24.6212 12.4242 25.6524C13.6429 26.6835 15.1877 27.2494 16.7842 27.2494C18.3806 27.2494 19.9254 26.6835 21.1442 25.6524C22.3629 24.6212 23.1767 23.1914 23.441 21.6169C23.7053 20.0425 23.403 18.4254 22.5879 17.0527C21.7727 15.6801 20.4974 14.6408 18.9884 14.1194M28.0352 29.877C28.0352 28.8414 28.8746 28.002 29.9102 28.002H30.6602C31.6957 28.002 32.5352 28.8414 32.5352 29.877C32.5352 30.9125 31.6957 31.752 30.6602 31.752H29.9102C28.8746 31.752 28.0352 30.9125 28.0352 29.877ZM28.0352 29.877C24.4082 29.877 20.0522 26.7794 17.4677 22.6454M17.5352 1.75195H16.0352C15.2067 1.75195 14.5352 2.42353 14.5352 3.25195V13.752C14.5352 14.5804 15.2067 15.252 16.0352 15.252H17.5352C18.3636 15.252 19.0352 14.5804 19.0352 13.752V3.25195C19.0352 2.42353 18.3636 1.75195 17.5352 1.75195ZM14.5352 20.502C14.5352 21.7446 15.5425 22.752 16.7852 22.752C18.0278 22.752 19.0352 21.7446 19.0352 20.502C19.0352 19.2593 18.0278 18.252 16.7852 18.252C15.5425 18.252 14.5352 19.2593 14.5352 20.502Z" stroke="white" stroke-width="2" stroke-linecap="round" stroke-linejoin="round"/>
</svg>
