<svg aria-hidden="true" style="position: absolute; width: 0; height: 0; overflow: hidden;" version="1.1" xmlns="http://www.w3.org/2000/svg" xmlns:xlink="http://www.w3.org/1999/xlink">
<defs>
<symbol id="icon-cart" viewBox="0 0 30 32">
<path d="M9.671 20.866h16.725c0.283 0.005 0.558-0.093 0.777-0.276s0.367-0.438 0.418-0.722l2.389-13.382c0.032-0.175 0.027-0.355-0.017-0.527s-0.123-0.333-0.234-0.47c-0.115-0.141-0.259-0.253-0.423-0.329s-0.342-0.113-0.521-0.109h-17.92c-0.317 0-0.621 0.128-0.845 0.356s-0.35 0.538-0.35 0.86c0 0.323 0.126 0.632 0.35 0.86s0.528 0.356 0.845 0.356h16.486l-1.959 10.949h-14.754l-3.357-16.070c-0.058-0.277-0.209-0.524-0.428-0.699s-0.489-0.268-0.767-0.262h-3.584c-0.317 0-0.621 0.128-0.845 0.356s-0.35 0.538-0.35 0.86c0 0.323 0.126 0.632 0.35 0.86s0.528 0.356 0.845 0.356h2.616l3.357 16.070c0.058 0.277 0.209 0.524 0.428 0.7s0.489 0.268 0.767 0.262z"></path>
<path d="M11.464 22.083c-0.827 0-1.635 0.25-2.323 0.718s-1.223 1.133-1.54 1.911c-0.316 0.778-0.399 1.634-0.238 2.46s0.56 1.585 1.144 2.18 1.33 1.001 2.141 1.165c0.811 0.164 1.652 0.080 2.416-0.242s1.417-0.868 1.876-1.568c0.459-0.7 0.705-1.523 0.705-2.366 0-1.129-0.441-2.212-1.225-3.011s-1.848-1.247-2.957-1.247zM11.464 28.166c-0.354 0-0.701-0.107-0.996-0.307s-0.524-0.486-0.66-0.819-0.171-0.7-0.102-1.054c0.069-0.354 0.24-0.679 0.49-0.934s0.57-0.429 0.917-0.499c0.348-0.070 0.708-0.034 1.035 0.104s0.607 0.372 0.804 0.672c0.197 0.3 0.302 0.653 0.302 1.014 0 0.484-0.189 0.948-0.525 1.29s-0.792 0.534-1.267 0.534z"></path>
<path d="M23.41 22.083c-0.827 0-1.636 0.25-2.323 0.718s-1.224 1.133-1.54 1.911c-0.316 0.778-0.399 1.634-0.238 2.46s0.56 1.585 1.144 2.18c0.585 0.595 1.33 1.001 2.141 1.165s1.652 0.080 2.416-0.242c0.764-0.322 1.417-0.868 1.877-1.568s0.705-1.523 0.705-2.366c0-1.129-0.441-2.212-1.225-3.011s-1.848-1.247-2.957-1.247v0zM23.41 28.166c-0.355 0-0.701-0.107-0.996-0.307s-0.524-0.486-0.66-0.819c-0.136-0.333-0.171-0.7-0.102-1.054s0.24-0.679 0.49-0.934 0.57-0.429 0.918-0.499c0.348-0.070 0.708-0.034 1.035 0.104s0.607 0.372 0.804 0.672c0.197 0.3 0.302 0.653 0.302 1.014 0 0.484-0.189 0.948-0.525 1.29s-0.792 0.534-1.267 0.534z"></path>
</symbol>
<symbol id="icon-profil" viewBox="0 0 27 32">
<path stroke-linejoin="round" stroke-linecap="round" stroke-miterlimit="4" stroke-width="3.4286" d="M13.421 14.271c3.31 0 5.993-2.683 5.993-5.993s-2.683-5.993-5.993-5.993c-3.31 0-5.993 2.683-5.993 5.993s2.683 5.993 5.993 5.993z"></path>
<path stroke-linejoin="round" stroke-linecap="round" stroke-miterlimit="4" stroke-width="3.4286" d="M24.571 29.714c0-5.657-5.035-10.286-11.19-10.286-1.399 0-2.797 0.257-4.010 0.686-4.103 1.457-7.087 5.229-7.087 9.6"></path>
</symbol>
</defs>
</svg>
