<svg aria-hidden="true" style="position: absolute; width: 0; height: 0; overflow: hidden;" version="1.1" xmlns="http://www.w3.org/2000/svg" xmlns:xlink="http://www.w3.org/1999/xlink">
<defs>
<symbol id="icon-call" viewBox="0 0 29 32">
<path fill="none" stroke="#fff" style="stroke: var(--color1, #fff)" stroke-linejoin="round" stroke-linecap="round" stroke-miterlimit="4" stroke-width="1.6842" d="M12.24 2.837c-6.145 0.771-11.368 5.947-11.368 12.217-0 1.936 0.458 3.845 1.336 5.571s2.152 3.219 3.717 4.359v5.543M24.871 21.053v-0.632h2.918c0.099-0 0.197-0.024 0.286-0.069s0.165-0.111 0.223-0.191c0.058-0.081 0.097-0.174 0.112-0.272s0.008-0.199-0.023-0.293c-2.411-7.47-4.147-15.504-12.359-16.704M18.556 30.527v-2.526h2.526c0.39 0 0.778-0.059 1.149-0.177M12.278 11.89c-1.271 0.439-2.345 1.314-3.031 2.47s-0.941 2.518-0.718 3.844c0.223 1.326 0.908 2.53 1.934 3.398s2.327 1.345 3.672 1.345c1.344 0 2.645-0.477 3.672-1.345s1.712-2.072 1.934-3.398c0.223-1.326-0.032-2.688-0.718-3.844s-1.76-2.031-3.031-2.47M23.609 25.16c0-0.872 0.707-1.579 1.579-1.579h0.632c0.872 0 1.579 0.707 1.579 1.579s-0.707 1.579-1.579 1.579h-0.632c-0.872 0-1.579-0.707-1.579-1.579zM23.609 25.16c-3.054 0-6.723-2.608-8.899-6.090M14.766 1.475h-1.263c-0.698 0-1.263 0.566-1.263 1.263v8.842c0 0.698 0.565 1.263 1.263 1.263h1.263c0.698 0 1.263-0.566 1.263-1.263v-8.842c0-0.698-0.566-1.263-1.263-1.263zM12.24 17.265c0 1.046 0.848 1.895 1.895 1.895s1.895-0.848 1.895-1.895c0-1.046-0.848-1.895-1.895-1.895s-1.895 0.848-1.895 1.895z"></path>
</symbol>
<symbol id="icon-instruments" viewBox="0 0 32 32">
<path fill="none" stroke="#fff" style="stroke: var(--color1, #fff)" stroke-linejoin="round" stroke-linecap="round" stroke-miterlimit="4" stroke-width="1.8824" d="M15.923 13.415l-4.76-4.759c0.42-0.929 0.547-1.965 0.364-2.968s-0.667-1.927-1.389-2.649c-0.721-0.721-1.645-1.206-2.648-1.389s-2.039-0.056-2.968 0.364l2.693 2.692v2.51h-2.51l-2.693-2.692c-0.42 0.929-0.547 1.965-0.364 2.968s0.667 1.927 1.388 2.649c0.721 0.721 1.645 1.206 2.648 1.389s2.039 0.056 2.968-0.364l4.76 4.759M16.076 18.588l4.76 4.76c-0.42 0.929-0.547 1.965-0.364 2.968s0.667 1.927 1.389 2.649 1.645 1.206 2.648 1.389c1.003 0.183 2.039 0.056 2.968-0.364l-2.693-2.696v-2.51h2.51l2.693 2.694c0.42-0.929 0.547-1.965 0.364-2.968s-0.667-1.927-1.389-2.649c-0.721-0.721-1.645-1.206-2.648-1.389s-2.039-0.056-2.968 0.364l-4.76-4.76M20.316 9.023l-18.196 18.196c-0.353 0.353-0.551 0.832-0.551 1.331s0.198 0.978 0.551 1.331c0.353 0.353 0.832 0.552 1.331 0.552s0.978-0.198 1.331-0.552l18.196-18.196M23.843 3.766c-1.331 1.331-3.815 1.205-5.961-0.941l-1.882 1.881 10.039 10.039 4.392-4.392-6.588-6.587z"></path>
</symbol>
<symbol id="icon-offer" viewBox="0 0 32 32">
<path fill="none" stroke="#fff" style="stroke: var(--color1, #fff)" stroke-linejoin="round" stroke-linecap="round" stroke-miterlimit="4" stroke-width="1.6842" d="M24.206 27.368c-1.172 0-2.297-0.466-3.126-1.295s-1.295-1.954-1.295-3.126 0.466-2.297 1.295-3.126c0.829-0.829 1.954-1.295 3.126-1.295M18.526 21.684h5.053M18.526 24.211h5.053M11.579 20.421h-8.842c-0.335 0-0.656-0.133-0.893-0.37s-0.37-0.558-0.37-0.893v-12.109c0-0.335 0.133-0.656 0.37-0.893l4.312-4.312c0.237-0.237 0.558-0.37 0.893-0.37h6.533c0.335 0 0.656 0.133 0.893 0.37l4.312 4.312c0.237 0.237 0.37 0.558 0.37 0.893v4.53M19.044 6.526h-17.457M10.316 1.474v5.053M30.526 22.947c0 4.186-3.393 7.579-7.579 7.579s-7.579-3.393-7.579-7.579c0-4.186 3.393-7.579 7.579-7.579s7.579 3.393 7.579 7.579z"></path>
</symbol>
<symbol id="icon-premium" viewBox="0 0 31 32">
<path fill="none" stroke="#fff" style="stroke: var(--color1, #fff)" stroke-linejoin="round" stroke-linecap="round" stroke-miterlimit="4" stroke-width="1.8824" d="M23.294 1.569l-3.704 7.542M22.256 10.316l4.273-8.747M24.573 12.054l5.192-10.485M7.765 1.569l3.704 7.542M8.801 10.316l-4.272-8.747M6.484 12.054l-5.189-10.485M25.235 21.020c0 5.198-4.346 9.412-9.706 9.412s-9.706-4.214-9.706-9.412c0-5.198 4.346-9.412 9.706-9.412s9.706 4.214 9.706 9.412zM16.14 16.36l1.33 2.777h2.588c0.131-0.005 0.259 0.029 0.369 0.098s0.195 0.169 0.244 0.286c0.049 0.117 0.059 0.247 0.030 0.37s-0.098 0.235-0.195 0.319l-2.247 2.143 1.245 2.772c0.055 0.127 0.067 0.267 0.035 0.401s-0.107 0.255-0.213 0.346-0.24 0.147-0.381 0.16c-0.141 0.013-0.283-0.016-0.406-0.085l-3.010-1.638-3.006 1.64c-0.123 0.069-0.265 0.099-0.406 0.085s-0.274-0.070-0.381-0.16c-0.107-0.091-0.181-0.212-0.213-0.346s-0.020-0.274 0.034-0.401l1.245-2.772-2.247-2.143c-0.099-0.084-0.168-0.195-0.199-0.319s-0.021-0.254 0.028-0.372 0.134-0.219 0.244-0.288c0.11-0.069 0.24-0.103 0.371-0.097h2.588l1.332-2.78c0.058-0.109 0.146-0.2 0.253-0.263s0.232-0.097 0.358-0.097c0.126 0 0.25 0.034 0.357 0.098s0.195 0.155 0.252 0.264z"></path>
</symbol>
<symbol id="icon-news-arrow" viewBox="0 0 21 32">
<path fill="none" stroke="#a52b41" style="stroke: var(--color2, #a52b41)" stroke-linejoin="round" stroke-linecap="round" stroke-miterlimit="4" stroke-width="6.8571" d="M4.571 4.571l11.429 11.429-11.429 11.429"></path>
</symbol>
<symbol id="icon-arrow-left" viewBox="0 0 21 32">
<path fill="#ddd" style="fill: var(--color3, #ddd)" d="M5.788 16l12.562-11.573c0.632-0.582 0.632-1.526 0-2.108s-1.656-0.582-2.288 0l-13.706 12.627c-0.632 0.582-0.632 1.526 0 2.108l13.706 12.627c0.632 0.582 1.656 0.582 2.288 0s0.632-1.526 0-2.108l-12.562-11.573z"></path>
<path fill="none" stroke="#ddd" style="stroke: var(--color3, #ddd)" stroke-linejoin="miter" stroke-linecap="butt" stroke-miterlimit="4" stroke-width="0.9412" d="M18.669 4.773l-12.186 11.227 12.186 11.227c0.834 0.768 0.834 2.032 0 2.8-0.812 0.748-2.114 0.748-2.925 0-0 0-0 0-0 0l-13.706-12.627c-0.834-0.768-0.834-2.032 0-2.8l0-0 13.706-12.627c0 0 0-0 0-0 0.812-0.748 2.113-0.748 2.925 0 0.834 0.768 0.834 2.032 0 2.8l-0 0z"></path>
</symbol>
<symbol id="icon-arrow-right" viewBox="0 0 21 32">
<path stroke-linejoin="miter" stroke-linecap="butt" stroke-miterlimit="4" stroke-width="0.9412" d="M2.037 4.773l12.186 11.227-12.186 11.227c-0.834 0.768-0.834 2.032 0 2.8 0.812 0.748 2.114 0.748 2.925 0 0 0 0 0 0 0l13.706-12.627c0.834-0.768 0.834-2.032 0-2.8l-0-0-13.706-12.627c0 0 0-0-0-0-0.812-0.748-2.114-0.748-2.925 0-0.834 0.768-0.834 2.032 0 2.8l0 0z"></path>
</symbol>
<symbol id="icon-hero-right-arrow" viewBox="0 0 45 32">
<path fill="#a52b41" style="fill: var(--color2, #a52b41)" d="M27.783 0.618c0.824-0.823 2.159-0.823 2.982 0l13.418 13.418c0.824 0.823 0.824 2.158 0 2.982-0.030 0.029-0.060 0.058-0.091 0.085l-13.333 13.333c-0.824 0.823-2.159 0.823-2.982 0s-0.823-2.158 0-2.982l9.613-9.613h-35.282c-1.165 0-2.108-0.944-2.108-2.108s0.944-2.108 2.108-2.108h35.699l-10.025-10.025c-0.823-0.823-0.823-2.158 0-2.982z"></path>
</symbol>
<symbol id="icon-arrow-down" viewBox="0 0 32 32">
<path stroke-linejoin="round" stroke-linecap="round" stroke-miterlimit="4" stroke-width="7.2727" d="M26.688 11.131l-9.702 9.702c-0.265 0.265-0.694 0.265-0.959 0.001-0-0-0-0-0.001-0.001l-9.702-9.702"></path>
</symbol>
<symbol id="icon-cart" viewBox="0 0 32 32">
<path d="M10.671 20.866h16.725c0.283 0.005 0.558-0.093 0.777-0.276s0.367-0.438 0.418-0.722l2.389-13.382c0.032-0.175 0.027-0.355-0.017-0.527s-0.123-0.333-0.234-0.47c-0.115-0.141-0.259-0.253-0.423-0.329s-0.342-0.113-0.521-0.109h-17.92c-0.317 0-0.621 0.128-0.845 0.356s-0.35 0.538-0.35 0.86c0 0.323 0.126 0.632 0.35 0.86s0.528 0.356 0.845 0.356h16.486l-1.959 10.949h-14.754l-3.357-16.070c-0.058-0.277-0.209-0.524-0.428-0.699s-0.489-0.268-0.767-0.262h-3.584c-0.317 0-0.621 0.128-0.845 0.356s-0.35 0.538-0.35 0.86c0 0.323 0.126 0.632 0.35 0.86s0.528 0.356 0.845 0.356h2.616l3.357 16.070c0.058 0.277 0.209 0.524 0.428 0.7s0.489 0.268 0.767 0.262z"></path>
<path d="M12.464 22.083c-0.827 0-1.635 0.25-2.323 0.718s-1.223 1.133-1.54 1.911c-0.316 0.778-0.399 1.634-0.238 2.46s0.56 1.585 1.144 2.18 1.33 1.001 2.141 1.165c0.811 0.164 1.652 0.080 2.416-0.242s1.417-0.868 1.876-1.568c0.459-0.7 0.705-1.523 0.705-2.366 0-1.129-0.441-2.212-1.225-3.011s-1.848-1.247-2.957-1.247zM12.464 28.166c-0.354 0-0.701-0.107-0.996-0.307s-0.524-0.486-0.66-0.819-0.171-0.7-0.102-1.054c0.069-0.354 0.24-0.679 0.49-0.934s0.57-0.429 0.917-0.499c0.348-0.070 0.708-0.034 1.035 0.104s0.607 0.372 0.804 0.672c0.197 0.3 0.302 0.653 0.302 1.014 0 0.484-0.189 0.948-0.525 1.29s-0.792 0.534-1.267 0.534z"></path>
<path d="M24.41 22.083c-0.827 0-1.636 0.25-2.323 0.718s-1.224 1.133-1.54 1.911c-0.316 0.778-0.399 1.634-0.238 2.46s0.56 1.585 1.144 2.18c0.585 0.595 1.33 1.001 2.141 1.165s1.652 0.080 2.416-0.242c0.764-0.322 1.417-0.868 1.877-1.568s0.705-1.523 0.705-2.366c0-1.129-0.441-2.212-1.225-3.011s-1.848-1.247-2.957-1.247v0zM24.41 28.166c-0.355 0-0.701-0.107-0.996-0.307s-0.524-0.486-0.66-0.819c-0.136-0.333-0.171-0.7-0.102-1.054s0.24-0.679 0.49-0.934 0.57-0.429 0.918-0.499c0.348-0.070 0.708-0.034 1.035 0.104s0.607 0.372 0.804 0.672c0.197 0.3 0.302 0.653 0.302 1.014 0 0.484-0.189 0.948-0.525 1.29s-0.792 0.534-1.267 0.534z"></path>
</symbol>
<symbol id="icon-nav-menu-icon" viewBox="0 0 32 32">
<path fill="#a52b41" style="fill: var(--color2, #a52b41)" d="M2.667 14.222h8.83c1.482 0 2.667-1.185 2.667-2.667v-8.889c0-1.481-1.185-2.667-2.667-2.667h-8.83c-1.481 0-2.667 1.185-2.667 2.667v8.83c0 1.541 1.185 2.726 2.667 2.726z"></path>
<path fill="#a52b41" style="fill: var(--color2, #a52b41)" d="M20.444 14.222h8.83c1.481 0 2.667-1.185 2.667-2.667v-8.889c0-1.481-1.185-2.667-2.667-2.667h-8.83c-1.481 0-2.667 1.185-2.667 2.667v8.83c0 1.541 1.185 2.726 2.667 2.726z"></path>
<path fill="#a52b41" style="fill: var(--color2, #a52b41)" d="M2.667 32h8.83c1.482 0 2.667-1.185 2.667-2.667v-8.889c0-1.481-1.185-2.667-2.667-2.667h-8.83c-1.481 0-2.667 1.185-2.667 2.667v8.83c0 1.541 1.185 2.726 2.667 2.726z"></path>
<path fill="#eaeaea" style="fill: var(--color4, #eaeaea)" d="M24.889 32c3.927 0 7.111-3.184 7.111-7.111s-3.184-7.111-7.111-7.111c-3.927 0-7.111 3.184-7.111 7.111s3.184 7.111 7.111 7.111z"></path>
</symbol>
<symbol id="icon-profil" viewBox="0 0 32 32">
<path stroke-linejoin="round" stroke-linecap="round" stroke-miterlimit="4" stroke-width="3.4286" d="M15.707 14.271c3.31 0 5.993-2.683 5.993-5.993s-2.683-5.993-5.993-5.993c-3.31 0-5.993 2.683-5.993 5.993s2.683 5.993 5.993 5.993z"></path>
<path stroke-linejoin="round" stroke-linecap="round" stroke-miterlimit="4" stroke-width="3.4286" d="M26.857 29.714c0-5.657-5.035-10.286-11.19-10.286-1.399 0-2.797 0.257-4.010 0.686-4.103 1.457-7.087 5.229-7.087 9.6"></path>
</symbol>
<symbol id="icon-search" viewBox="0 0 32 32">
<path fill="#fff" style="fill: var(--color1, #fff)" d="M30.652 29.147l-7.45-7.921c1.916-2.328 2.965-5.257 2.965-8.306 0-7.124-5.67-12.92-12.639-12.92s-12.639 5.796-12.639 12.92c0 7.124 5.67 12.92 12.639 12.92 2.616 0 5.109-0.807 7.241-2.338l7.507 7.981c0.314 0.333 0.736 0.517 1.188 0.517 0.428 0 0.834-0.167 1.143-0.47 0.655-0.644 0.676-1.713 0.046-2.383zM13.528 3.37c5.151 0 9.342 4.284 9.342 9.55s-4.191 9.55-9.342 9.55c-5.151 0-9.342-4.284-9.342-9.55s4.191-9.55 9.342-9.55z"></path>
</symbol>
</defs>
</svg>
