<svg width="34" height="34" viewBox="0 0 34 34" fill="none" xmlns="http://www.w3.org/2000/svg">
<path d="M16.9187 14.2535L11.8613 9.19755C12.3078 8.21003 12.4429 7.10991 12.2485 6.04372C12.0541 4.97753 11.5395 3.99586 10.7732 3.22945C10.007 2.46304 9.0254 1.94826 7.95924 1.75367C6.89309 1.55908 5.79295 1.69391 4.80534 2.14022L7.66668 5.00022V7.66688H5.00001L2.13868 4.80688C1.69219 5.7944 1.55715 6.89452 1.75153 7.96071C1.94592 9.0269 2.46052 10.0086 3.22678 10.775C3.99305 11.5414 4.97462 12.0562 6.04078 12.2508C7.10693 12.4454 8.20707 12.3105 9.19468 11.8642L14.252 16.9202M17.0811 19.7495L22.1384 24.8069C21.6919 25.7944 21.5569 26.8945 21.7512 27.9607C21.9456 29.0269 22.4602 30.0086 23.2265 30.775C23.9928 31.5414 24.9743 32.0562 26.0405 32.2508C27.1066 32.4453 28.2068 32.3105 29.1944 31.8642L26.3331 29.0002V26.3335H28.9997L31.8611 29.1962C32.3075 28.2087 32.4426 27.1086 32.2482 26.0424C32.0538 24.9762 31.5392 23.9945 30.7729 23.2281C30.0067 22.4617 29.0251 21.9469 27.959 21.7523C26.8928 21.5577 25.7927 21.6926 24.8051 22.1389L19.7477 17.0815M21.5853 9.58691L2.25199 28.9202C1.8768 29.2954 1.66602 29.8043 1.66602 30.3349C1.66602 30.8655 1.8768 31.3744 2.25199 31.7496C2.62718 32.1248 3.13605 32.3356 3.66666 32.3356C4.19726 32.3356 4.70613 32.1248 5.08132 31.7496L24.4147 12.4162M25.3333 4.00146C23.9187 5.41613 21.28 5.28147 19 3.00146L17 5.00013L27.6667 15.6668L32.3333 11.0001L25.3333 4.00146Z" stroke="white" stroke-width="2" stroke-linecap="round" stroke-linejoin="round"/>
</svg>
