<svg width="38" height="38" viewBox="0 0 38 38" fill="none" xmlns="http://www.w3.org/2000/svg">
<path d="M28.7441 32.5C27.3518 32.5 26.0164 31.9469 25.0318 30.9623C24.0473 29.9777 23.4941 28.6424 23.4941 27.25C23.4941 25.8576 24.0473 24.5223 25.0318 23.5377C26.0164 22.5531 27.3518 22 28.7441 22M22 25.75H28M22 28.75H28M13.75 24.25H3.25C2.85218 24.25 2.47064 24.092 2.18934 23.8107C1.90804 23.5294 1.75 23.1478 1.75 22.75V8.371C1.75008 7.97321 1.90818 7.59174 2.1895 7.3105L7.3105 2.1895C7.59174 1.90818 7.97321 1.75008 8.371 1.75H16.129C16.5268 1.75008 16.9083 1.90818 17.1895 2.1895L22.3105 7.3105C22.5918 7.59174 22.7499 7.97321 22.75 8.371V13.75M22.615 7.75H1.88497M12.25 1.75V7.75M36.25 27.25C36.25 32.2206 32.2206 36.25 27.25 36.25C22.2794 36.25 18.25 32.2206 18.25 27.25C18.25 22.2794 22.2794 18.25 27.25 18.25C32.2206 18.25 36.25 22.2794 36.25 27.25Z" stroke="white" stroke-width="2" stroke-linecap="round" stroke-linejoin="round"/>
</svg>
