<svg width="33" height="34" viewBox="0 0 33 34" fill="none" xmlns="http://www.w3.org/2000/svg">
<path d="M24.7497 1.66699L20.8145 9.68033M23.6475 10.9603L28.1877 1.66699M26.1084 12.807L31.6249 1.66699M8.25 1.66699L12.1853 9.68033M9.35138 10.9603L4.8125 1.66699M6.88875 12.807L1.375 1.66699M26.8125 22.3337C26.8125 27.8565 22.1954 32.3337 16.5 32.3337C10.8046 32.3337 6.1875 27.8565 6.1875 22.3337C6.1875 16.8108 10.8046 12.3337 16.5 12.3337C22.1954 12.3337 26.8125 16.8108 26.8125 22.3337ZM17.1488 17.383L18.5623 20.3337H21.3123C21.451 20.3283 21.588 20.3646 21.7046 20.4376C21.8211 20.5106 21.9116 20.6167 21.9637 20.7414C22.0158 20.8662 22.0268 21.0034 21.9954 21.1345C21.964 21.2656 21.8915 21.384 21.7881 21.4737L19.4011 23.751L20.7238 26.6963C20.7817 26.8312 20.7945 26.9803 20.7605 27.1227C20.7264 27.265 20.6472 27.3934 20.534 27.4898C20.4208 27.5862 20.2792 27.6458 20.1293 27.6601C19.9793 27.6744 19.8285 27.6428 19.6981 27.5697L16.4998 25.8297L13.3057 27.5723C13.1752 27.6455 13.0244 27.6771 12.8745 27.6628C12.7245 27.6484 12.583 27.5889 12.4698 27.4925C12.3565 27.3961 12.2773 27.2677 12.2433 27.1253C12.2092 26.983 12.2221 26.8339 12.2799 26.699L13.6027 23.7537L11.2157 21.4763C11.1106 21.3875 11.0367 21.2691 11.004 21.1377C10.9714 21.0063 10.9817 20.8683 11.0335 20.7428C11.0853 20.6173 11.176 20.5105 11.2932 20.4372C11.4103 20.3639 11.548 20.3277 11.6873 20.3337H14.4373L15.8522 17.3803C15.9137 17.2649 16.0068 17.168 16.1213 17.1005C16.2358 17.033 16.3673 16.9975 16.5013 16.9977C16.6354 16.998 16.7667 17.0341 16.8809 17.1021C16.9952 17.1701 17.0879 17.2673 17.1488 17.383Z" stroke="white" stroke-width="2" stroke-linecap="round" stroke-linejoin="round"/>
</svg>
