<svg width="17" height="18" viewBox="0 0 17 18" fill="none" xmlns="http://www.w3.org/2000/svg">
<path fill-rule="evenodd" clip-rule="evenodd" d="M16.7415 16.3951L12.5507 11.9395C13.6283 10.6301 14.2186 8.98262 14.2186 7.26749C14.2186 3.26026 11.0293 0 7.10932 0C3.1893 0 0 3.26026 0 7.26749C0 11.2747 3.1893 14.535 7.10932 14.535C8.58095 14.535 9.98334 14.0812 11.1823 13.2199L15.405 17.7093C15.5815 17.8967 15.8189 18 16.0732 18C16.314 18 16.5425 17.9062 16.7159 17.7355C17.0843 17.3731 17.0961 16.7721 16.7415 16.3951ZM7.10932 1.89587C10.0068 1.89587 12.364 4.30552 12.364 7.26749C12.364 10.2295 10.0068 12.6391 7.10932 12.6391C4.21181 12.6391 1.85461 10.2295 1.85461 7.26749C1.85461 4.30552 4.21181 1.89587 7.10932 1.89587Z" fill="white"/>
</svg>
